<?xml version="1.0" encoding="UTF-8" standalone="no"?>
<!-- Created with Inkscape (http://www.inkscape.org/) -->

<svg
   width="512"
   height="512"
   viewBox="0 0 512 512"
   version="1.1"
   id="svg5"
   inkscape:version="1.1.1 (3bf5ae0d25, 2021-09-20)"
   sodipodi:docname="dolphin.svg"
   xmlns:inkscape="http://www.inkscape.org/namespaces/inkscape"
   xmlns:sodipodi="http://sodipodi.sourceforge.net/DTD/sodipodi-0.dtd"
   xmlns="http://www.w3.org/2000/svg"
   xmlns:svg="http://www.w3.org/2000/svg">
  <sodipodi:namedview
     id="namedview7"
     pagecolor="#505050"
     bordercolor="#ffffff"
     borderopacity="1"
     inkscape:pageshadow="0"
     inkscape:pageopacity="0"
     inkscape:pagecheckerboard="1"
     inkscape:document-units="px"
     showgrid="false"
     inkscape:zoom="1.2056723"
     inkscape:cx="62.205957"
     inkscape:cy="93.723642"
     inkscape:current-layer="layer1" />
  <defs
     id="defs2" />
  <g
     inkscape:label="Layer 1"
     inkscape:groupmode="layer"
     id="layer1">
    <path
       style="fill:none;stroke:#000000;stroke-width:12;stroke-linecap:butt;stroke-linejoin:miter;stroke-opacity:1;stroke-miterlimit:4;stroke-dasharray:none"
       d="m 93.186999,326.24957 c 7.321181,-20.9088 10.877851,-42.73835 14.460121,-64.23174 1.39796,-8.38763 7.19993,-20.07857 10.39283,-28.06071 1.06096,-2.65238 0.95323,-5.6885 2.07854,-8.31422 1.38026,-3.22063 4.86409,-5.69586 6.23575,-9.3536 5.49459,-14.65219 16.84101,-33.51201 27.02133,-45.72845 2.97069,-3.56484 6.45561,-6.77042 9.35352,-10.39282 3.50994,-4.38743 6.41321,-9.53105 10.39283,-13.51067 7.59964,-7.59964 16.59379,-14.10658 24.9428,-20.78565 5.51428,-4.41134 9.74643,-9.61535 15.58927,-13.51067 2.23919,-1.49283 4.85034,-2.07871 7.27499,-3.11784 2.56717,-1.10021 4.62532,-3.27393 7.27499,-4.15715 0.98595,-0.32864 2.07856,0 3.11784,0 1.03928,-0.34643 2.10069,-0.63244 3.11784,-1.0393 1.87553,-0.75022 3.28009,-2.47906 5.19645,-3.11784 0.98595,-0.32865 2.10959,0.25207 3.11784,0 5.45531,-1.363853 13.13263,-4.487777 18.70711,-7.274987 3.7923,-1.896128 8.25015,-5.18034 12.47137,-6.235681 12.98931,-3.24744 26.46203,-5.708108 39.49277,-8.31429 7.49125,-1.498272 16.32948,0.631138 23.90349,0 6.07063,-0.505863 13.46736,-2.294961 19.74635,-1.039233 1.99655,0.399288 21.3522,3.525447 21.92039,4.123998 0.2309,0.243243 -0.30188,0.860032 0,1.006157 10e-5,5.1e-5 4.15699,-5.1e-5 4.15714,0 0.46479,0.154933 0.69287,0.692869 1.03931,1.039304 0.69284,0.346411 1.32704,0.851369 2.07853,1.039233 3.75353,0.938332 12.73769,0.652764 15.58928,2.078608 4.49564,2.247899 9.10631,4.033503 13.51067,6.235681 3.04852,1.524264 5.44813,7.70537 7.27498,8.31429 1.99822,0.66604 3.46737,2.2393 5.19638,3.11784 2.18863,1.11209 5.7187,1.45893 8.19709,2.07854 4.96681,1.24172 8.46005,5.64006 12.47137,8.31429 0.91151,0.60767 2.26239,0.35495 3.11784,1.0393 5.07536,4.06027 2.7778,10.05283 5.19645,12.47136 1.71853,1.71846 8.46451,2.28224 9.30011,3.11785 0.46951,0.46951 -0.29308,1.39616 0,1.99198 1.70079,3.45761 0.30566,-1.40105 2.04539,2.07853 1.54131,3.08273 2.01468,7.11846 3.11784,10.3929 1.26734,3.76179 -3.0751,7.02929 -4.15707,10.27542 -0.89558,2.6869 0.8957,6.2694 0,8.95625 -0.52909,1.58713 -1.03938,1.20429 -1.03938,3.10596 0,5.5664 1.03938,10.62177 1.03938,16.14376 0,0.43533 -0.31107,2.77061 0,3.06407 0.51914,0.48976 2.37607,0.75964 1.79267,1.17075 -0.66537,0.46886 -1.36012,0.45818 -1.76704,1.03923 5.93824,-0.69024 8.67723,0.001 12.8896,2.10753 1.91329,0.95671 0.16518,2.16119 2.07861,3.11785 1.4534,0.72664 3.04629,1.45477 4.15106,3.11189 6.52891,9.79314 9.35352,19.72011 9.35352,31.68872 0,0.4074 0.29028,3.24415 0,3.51095 -0.67184,0.61751 -1.5771,1.61369 -2.07846,3.11785 -0.73604,2.2082 -0.91086,5.11578 -3.07875,6.19659 -4.41871,2.20294 -7.75937,0.81301 -11.55585,2.07853 -2.99637,0.99882 -10.60846,2.55062 -13.63087,1.03931 -1.99499,-0.99757 -8.88375,-1.49873 -9.28307,-2.04546 -2.05228,-2.80988 -5.979,-0.19528 -9.37658,-1.96578 -3.05035,-1.58956 -7.19552,-2.49793 -10.27169,-4.03601 -1.48894,-0.74447 -3.46587,-0.23451 -5.06343,-1.03329 -2.06335,-1.03168 -6.16475,-0.32679 -8.30226,-1.03931 -0.32866,-0.10955 0.30986,-0.88437 0,-1.0393 -3.85217,-1.92609 -10.60137,-1.61768 -13.42662,-3.93965 -1.057,-0.86871 -4.92039,0.98922 -5.82954,0 -2.67261,-2.90797 -11.75903,-3.00333 -15.97007,-5.14297 -2.04327,-1.03819 -10.51962,0.57535 -11.81694,-1.03923 -0.6712,-0.83534 -3.14056,-1.87994 -4.48268,-1.87994"
       id="path1969" />
    <path
       style="fill:none;stroke:#000000;stroke-width:12;stroke-linecap:butt;stroke-linejoin:miter;stroke-opacity:1;stroke-miterlimit:4;stroke-dasharray:none"
       d="m 308.09214,169.15149 c 15.44482,-1.37199 37.0503,-6.10197 51.07088,0.90807 3.00254,1.50122 10.75549,9.74913 13.29782,12.29146 2.6722,2.6722 6.69666,3.48546 9.19988,5.98868 0.43987,0.43987 -0.47438,2.44586 0,2.83728 1.03916,0.8574 3.38068,5.36917 2.07861,7.97329 -1.62085,3.2417 -2.79611,11.07708 -5.19645,13.47759 -2.24849,2.24865 -13.05835,5.81644 -15.51704,8.27513 -0.94114,0.94115 -4.35183,3.71716 -5.1633,6.15156 -0.89796,2.6939 -2.61721,7.07183 -5.0267,8.91366 -2.5e-4,1.9e-4 -2.01219,-1.8e-4 -2.01239,0 -3.22686,3.06317 -12.03447,4.3741 -17.66781,7.19087 -5.6182,2.8092 -9.97091,7.58368 -15.5892,10.39282 -1.38173,0.69087 -0.69486,-0.68686 -2.0726,0 -3.42079,1.70544 1.34608,0.3602 -2.07861,2.0726 -0.92955,0.46479 -2.10959,-0.25207 -3.11784,0 -2.52302,0.63077 -5.0718,2.38343 -7.27498,3.11784 -4.7545,1.58487 -19.23898,-0.52065 -22.35889,1.0393 -1.80171,0.90086 -2.2855,1.03931 -4.44874,1.03931 -0.65663,0 0.56701,-1.2299 0.56701,-1.88653 0,-2.61151 -0.85539,-4.5505 -0.85539,-7.38645 0,-4.21556 9.65942,-11.1295 13.11663,-14.5867 1.60438,-1.60438 1.08809,-4.0566 2.7835,-4.92068 3.88684,-1.98096 4.34868,-8.82821 6.00279,-12.13645 1.70668,-3.41335 4.44849,-6.81819 6.23569,-10.39283 1.01681,-2.03376 -1.01687,-5.5927 0,-7.62643 1.33549,-2.67098 1.13805,-6.53191 2.0786,-9.35352 0.74425,-2.2327 -1.05898,-6.02794 0,-8.14598 0.58214,-1.16431 1.96102,-6.44665 2.03916,-6.49728 0.45665,-0.29581 3.37933,-1.88912 2.64033,-3.52964 -0.80498,-1.78695 -1.82064,-3.47131 -2.73096,-5.20697 z"
       id="path1971" />
    <path
       style="fill:none;stroke:#000000;stroke-width:12;stroke-linecap:butt;stroke-linejoin:miter;stroke-opacity:1;stroke-miterlimit:4;stroke-dasharray:none"
       d="m 301.08906,215.03415 c -7.34227,-1.16992 -20.88123,-2.74974 -25.67669,2.04539 -0.24069,0.24067 -8.0117,1.19527 -9.93421,3.11791 -0.34573,0.34576 -3.94739,-0.0699 -4.15707,0 -4.10831,1.36938 -8.27655,2.75737 -12.45948,4.15707 -11.9355,3.99391 -23.45971,9.40426 -34.29632,16.62858 -1.65244,1.10162 -0.29675,2.22689 -2.07861,3.11784 -3.27225,1.63619 -4.65263,4.65254 -7.27498,7.27499 -7.86406,7.86433 -14.85352,20.29499 -24.9428,27.02134 -6.08212,4.05483 -13.72565,12.79367 -17.66781,18.70711 -1.54812,2.32225 -4.99466,3.75364 -6.23568,6.23568 -0.30492,0.60984 0.48212,1.56334 0,2.04546 -2.05413,2.05413 -2.51704,5.1003 -4.01346,8.09315 -1.00124,2.00247 -3.03372,3.33822 -3.03372,5.1633 0,2.10113 -6.28703,12.43735 -8.1628,14.41337 -0.45013,0.47418 0.46231,1.4991 0,1.96141 -0.56619,0.56619 -2.2211,0.65808 -2.85324,1.89798 -1.23841,2.42906 -2.17373,4.06823 -3.84192,5.73654 -0.47009,0.47013 0.48216,1.53676 0,1.99449 -3.28191,3.11564 1.83966,-4.78832 -2.04546,1.03923 -0.60188,0.90279 -0.27208,2.31747 -1.03931,3.0847 -4.40487,4.40487 -9.75547,8.74931 -14.51682,13.51066 -0.90559,0.9056 -10.4773,13.13463 -11.46929,11.57196 -1.1473,-1.80735 -4.12537,-4.87734 -5.19645,-8.0905 -1.0376,-3.11273 -0.626323,-6.49541 -2.078536,-9.35352 -2.014549,-3.96485 2.091336,-15.55819 0,-19.32789 -1.538983,-2.77407 -2.365081,-5.16732 -3.986684,-7.92891 -0.813925,-1.38612 0.937701,-1.94541 -0.940721,-2.90192"
       id="path1973" />
    <path
       style="fill:none;stroke:#000000;stroke-width:12;stroke-linecap:butt;stroke-linejoin:miter;stroke-opacity:1;stroke-miterlimit:4;stroke-dasharray:none"
       d="m 138.28565,338.66166 c 8.18399,3.83492 10.93696,11.36139 14.8435,17.22107 1.57355,2.36028 3.93395,4.75005 5.19638,7.27499 0.30929,0.61859 0.57197,2.61739 1.00616,3.05154 1.2028,1.20272 4.42356,4.08884 5.12421,6.19073 1.26581,3.79733 4.07305,6.10965 6.23568,9.35352 2.08463,3.12687 4.07697,10.24257 6.21907,12.38452 4.93828,4.93792 7.13739,6.489 7.13739,14.78472 0,5.35486 -2.00019,14.43974 -5.41345,17.15915 -1.16466,0.92791 -7.75674,0 -8.98983,0 -3.39258,0 -7.91921,0.23851 -10.23625,-2.07854 -8.28887,-8.28886 -15.36351,-15.05311 -23.685,-23.37399 -0.43437,-0.43434 -2.42405,0.46953 -2.80756,0 -1.27523,-1.5613 -1.64108,-1.20678 -4.15707,-2.04546 -2.19381,-0.73129 -5.16014,-3.0519 -6.23576,-4.07303 -1.03019,-0.97801 -3.80661,-0.67078 -5.13015,-1.99441 -4.19429,-4.19458 -12.02456,-10.36828 -12.02456,-16.90844"
       id="path1975" />
    <path
       style="fill:none;stroke:#000000;stroke-width:12;stroke-linecap:butt;stroke-linejoin:miter;stroke-opacity:1;stroke-miterlimit:4;stroke-dasharray:none"
       d="m 93.186999,326.24957 c -12.148188,3.72532 -25.928257,-0.56042 -36.788159,4.86934 -2.164865,1.0824 -4.94935,4.94919 -6.235753,6.23569 -1.105459,1.10553 -11.072904,9.12889 -13.420533,10.30269 -0.619723,0.30985 -1.421296,-0.21911 -2.078608,0 -6.029274,2.0098 -13.200386,6.96459 -16.569086,10.3334 -1.928288,1.92836 -11.5044991,13.7619 -8.3142185,16.28465 11.2259195,8.87703 2.7308025,11.23848 21.9453035,11.23848 1.137004,0 6.260935,0.69811 6.959049,0 2.346338,-2.34634 5.345925,-3.39581 7.923397,-5.89125 1.331019,-1.28866 3.362766,-4.45218 4.931486,-5.97087 0.140935,-0.13644 15.434656,-0.20752 16.264748,0 1.839279,0.45983 6.637142,0.23568 8.230169,1.03931 5.851683,2.95199 8.069477,4.10471 12.28551,8.18628 0.423937,0.41042 1.615804,0.0598 2.590707,0.96549 2.535736,2.35581 17.401089,-6.77319 14.457399,-8.23475"
       id="path1977" />
    <path
       style="fill:none;stroke:#000000;stroke-width:12;stroke-linecap:butt;stroke-linejoin:miter;stroke-opacity:1;stroke-miterlimit:4;stroke-dasharray:none"
       d="m 198.59271,127.8057 c 0.15306,-10.93048 0.52383,-22.02348 -2.07861,-32.433063 -0.21941,-0.877641 0.45428,-3.248564 0,-4.157144 -2.02073,-4.041613 -6.73417,-6.480405 -9.32037,-10.359751 -1.21823,-1.82737 -2.62181,-4.700344 -4.15715,-6.235682 -2.31055,-2.310553 -6.66195,-5.009724 -8.31429,-8.31429 -2.63401,-5.267852 -5.83217,-9.267884 -9.35352,-14.549971 -1.67351,-2.510289 -4.88168,-4.566819 -6.23568,-7.274914 -0.34643,-0.692874 -0.89923,-1.316726 -1.0393,-2.078608 -0.005,-0.02894 2.02474,0.05821 2.12593,0 2.44815,-1.408308 4.5647,-1.746128 7.24191,-3.08473 5.19993,-2.599966 7.70833,-2.418779 12.54589,0 0.99194,0.495973 4.34467,0.698589 5.19637,1.039269 5.3792,2.151671 10.19908,5.118844 15.58928,7.274985 2.598,1.039229 4.46352,3.454255 7.27499,4.157145 8.75007,2.187595 35.63534,12.771562 41.5713,18.707116 3.57743,3.577184 7.39921,8.226192 10.71277,12.077248 0.33483,0.389134 0.45536,3.322615 0.78415,3.547394 1.12133,0.766597 4.83778,3.310989 4.83778,4.821593"
       id="path1979" />
    <path
       style="fill:#7986cb;stroke:#000000;stroke-width:10;stroke-linecap:butt;stroke-linejoin:miter;stroke-opacity:1;stroke-miterlimit:4;stroke-dasharray:none;fill-opacity:1"
       d="m 426.96628,151.25122 c -5.8654,5.94934 -5.6194,3.86691 -7.187,9.35359 -2.0266,7.0932 -0.30855,10.70154 5.19638,13.49871 1.55422,0.78973 4.25347,-0.55545 5.91982,0 4.51225,1.50409 -0.71394,1.03931 5.19644,1.03931 1.47155,0 7.24764,0.86061 8.248,0 0.5257,-0.45227 -0.89404,-1.08723 -0.89404,-1.93342 0,-4.46033 1.5309,-11.97981 -2.07861,-15.58921 -0.42883,-0.42881 -2.14781,0.2666 -2.73024,0 -1.65312,-0.75669 -1.48106,-1.76128 -2.38631,-2.66659 -0.8569,-0.85696 -8.95014,-3.52987 -9.28444,-3.70239 z"
       id="path2047" />
    <path
       style="fill:#7986cb;fill-opacity:1;stroke-width:11.7297;stroke-linecap:round;stroke-linejoin:round;stroke-miterlimit:4;stroke-dasharray:none"
       d="m 105.337,358.04722 c -0.67044,-3.06388 -0.96806,-9.06089 -0.66137,-13.32666 0.44331,-6.16608 0.0568,-8.88811 -1.88547,-13.27895 l -2.44308,-5.52298 2.84947,-9.83295 c 2.57197,-8.87531 8.53012,-37.53157 10.60282,-50.99519 0.44693,-2.90309 3.0542,-10.82062 5.79394,-17.5945 2.73974,-6.77388 5.36427,-13.89966 5.8323,-15.83505 0.46803,-1.9354 2.02573,-5.10241 3.46155,-7.0378 1.43581,-1.9354 4.04244,-6.87238 5.7925,-10.97106 4.01907,-9.41277 10.6392,-20.72059 18.29858,-31.25575 5.43111,-7.47026 8.9722,-11.81039 23.74579,-29.10397 2.65216,-3.10456 10.1598,-9.91547 16.68363,-15.13536 6.52384,-5.21989 13.97611,-11.50462 16.56061,-13.96606 4.8706,-4.63869 16.15189,-11.11612 22.27915,-12.79212 10.10547,-2.76416 28.90751,-9.98683 35.29157,-13.556995 11.77659,-6.585845 39.50057,-11.771021 67.34303,-12.595067 20.7335,-0.613645 35.46197,0.581205 39.73766,3.223724 2.37406,1.467255 14.38949,4.106002 18.91067,4.153036 5.64386,0.05871 17.99111,6.123565 21.14128,10.384392 2.83039,3.82832 12.45023,9.5969 16.00403,9.5969 1.22392,0 5.71016,2.2433 9.96943,4.98511 6.64593,4.27817 7.84395,5.58081 8.44811,9.18585 0.76877,4.58723 3.17572,7.28682 9.16258,10.2766 5.70439,2.84872 7.31396,8.55919 4.13279,14.66241 -2.08896,4.00775 -2.37805,6.65748 -2.2992,21.07437 0.0857,15.68924 -0.0471,16.67031 -2.73728,20.19723 -1.55511,2.03885 -2.82746,4.05612 -2.82746,4.48284 0,0.42672 4.38108,0.4391 9.73573,0.0275 l 9.73573,-0.74835 4.29527,3.96716 c 5.62658,5.19677 9.3043,13.8143 9.94474,23.30222 0.80119,11.86916 -0.0643,13.11164 -10.36446,14.87927 -7.4712,1.28215 -9.66847,1.23137 -15.72273,-0.36333 -3.87079,-1.01956 -9.31637,-2.31388 -12.10129,-2.87626 -2.78491,-0.56238 -5.514,-1.30094 -6.06462,-1.64125 -1.22695,-0.7583 -29.5537,-8.31878 -39.51108,-10.54561 -3.98167,-0.89044 -9.26002,-2.18007 -11.72967,-2.86585 -2.46963,-0.68577 -6.02359,-1.24981 -7.8977,-1.2534 -3.28386,-0.006 -3.33364,-0.0881 -1.37256,-2.25507 1.1192,-1.2367 3.28948,-6.19924 4.82285,-11.02787 2.73934,-8.62621 2.75305,-8.89638 0.78608,-15.48948 -1.76098,-5.90266 -2.70763,-7.16971 -7.86672,-10.52921 -3.22565,-2.10049 -7.97617,-6.0394 -10.5567,-8.75314 -10.45442,-10.99407 -20.73126,-13.03389 -50.75353,-10.07388 -11.4386,1.12777 -21.02895,2.27406 -21.31192,2.54731 -0.28295,0.27326 0.6603,2.91484 2.09612,5.87019 1.913,3.93753 2.27394,5.77897 1.35078,6.89133 -0.6929,0.83488 -1.73618,5.3991 -2.3184,10.14271 -0.58222,4.74361 -1.42795,11.39588 -1.87942,14.78282 l -0.82082,6.15808 h -8.97234 c -6.47251,0 -10.18003,0.61573 -13.30701,2.20994 -2.38407,1.21548 -6.83353,2.58467 -9.88769,3.04268 -8.1175,1.21729 -29.06843,8.96722 -41.24987,15.25869 -11.5076,5.94344 -19.26863,13.05854 -33.30739,30.53528 -4.15573,5.17345 -10.50387,11.63202 -14.10696,14.35237 -10.59568,7.99982 -22.80456,23.40911 -30.75542,38.81759 -9.38547,18.18869 -19.67528,32.92641 -30.22009,43.28313 l -8.65755,8.50312 z M 448.46181,179.11599 c 1.79461,-2.16238 0.67742,-18.78188 -1.55241,-23.0939 -1.09711,-2.12159 -2.75524,-3.53641 -4.14456,-3.53641 -1.2737,0 -2.31581,-0.47196 -2.31581,-1.04881 0,-0.57685 -3.29897,-2.39858 -7.33105,-4.0483 l -7.33104,-2.99949 -5.4708,5.61488 c -4.35377,4.46845 -5.63786,6.72893 -6.289,11.07108 -1.07926,7.19699 0.004,11.01019 4.25423,14.98088 3.72524,3.47988 6.398,4.04983 20.55783,4.38378 5.6271,0.13272 8.77304,-0.30005 9.62261,-1.32371 z"
       id="path8289" />
    <path
       style="fill:#3949ab;fill-opacity:1;stroke-width:11.7297;stroke-linecap:round;stroke-linejoin:round;stroke-miterlimit:4;stroke-dasharray:none"
       d="m 289.95649,252.46061 -6.8041,-0.39338 8.20388,-8.78463 c 5.68077,-6.08291 8.93996,-10.75198 10.59724,-15.18145 1.31634,-3.51826 3.75231,-8.54955 5.41325,-11.18066 1.66095,-2.6311 3.18716,-6.9888 3.39158,-9.68377 1.16551,-15.36508 2.2765,-21.89646 4.56268,-26.82358 2.91995,-6.29298 4.54404,-6.84082 21.34579,-7.20031 14.60927,-0.31258 17.15766,0.61237 27.10896,9.83935 4.82929,4.47777 9.18781,8.14141 9.68561,8.14141 0.4978,0 1.58245,1.26566 2.41034,2.81257 1.25626,2.34734 1.1842,3.77916 -0.43562,8.65598 -1.75231,5.2757 -2.47087,6.0458 -7.39632,7.92685 -6.73908,2.57368 -15.03111,10.04056 -16.67221,15.01314 -1.28465,3.89253 -2.45076,4.61171 -14.7261,9.08204 -3.87079,1.40964 -9.6457,4.41258 -12.83313,6.67322 -5.84908,4.14836 -18.70456,9.99582 -24.11533,10.96911 -1.61283,0.29012 -5.99426,0.35047 -9.73652,0.13411 z"
       id="path31535" />
    <path
       style="fill:#3949ab;fill-opacity:1;stroke-width:11.7297;stroke-linecap:round;stroke-linejoin:round;stroke-miterlimit:4;stroke-dasharray:none"
       d="M 204.14845,100.66168 C 203.12057,88.878242 202.43321,87.043967 196.83937,81.156682 187.65613,71.4917 180.91558,63.169724 175.28766,54.548608 c -4.61563,-7.070435 -5.4321,-9.015388 -4.01315,-9.559892 2.93425,-1.125978 11.85765,1.691742 24.45596,7.722398 6.53656,3.128972 18.21867,8.147853 25.96025,11.15307 7.74158,3.005218 16.08029,6.685146 18.53047,8.17762 4.46849,2.721883 14.89908,13.970932 14.89908,16.068167 0,1.440103 -9.96367,5.727371 -13.31049,5.727371 -1.40761,0 -4.52895,1.055671 -6.9363,2.345934 -2.40735,1.290263 -5.30683,2.345934 -6.44328,2.345934 -2.00127,0 -8.62691,3.16216 -18.61419,8.88382 l -4.83691,2.77104 z"
       id="path31574" />
    <path
       style="fill:#3949ab;fill-opacity:1;stroke-width:11.7297;stroke-linecap:round;stroke-linejoin:round;stroke-miterlimit:4;stroke-dasharray:none"
       d=""
       id="path31613" />
    <path
       style="fill:#3949ab;fill-opacity:1;stroke-width:11.7297;stroke-linecap:round;stroke-linejoin:round;stroke-miterlimit:4;stroke-dasharray:none"
       d="m 151.42585,407.17129 c -8.02342,-7.86009 -14.31086,-13.05709 -16.39225,-13.54932 -1.85707,-0.43918 -5.27857,-2.091 -7.60333,-3.67072 -2.32477,-1.57972 -4.85494,-2.87221 -5.62261,-2.87221 -0.76767,0 -3.28898,-2.2118 -5.60291,-4.9151 l -4.20714,-4.9151 13.79272,-14.14465 c 7.58599,-7.77955 14.05663,-14.26381 14.3792,-14.40947 0.32257,-0.14565 3.22566,3.96869 6.45132,9.143 3.22566,5.1743 7.08332,11.09923 8.57258,13.1665 5.8373,8.10285 13.1273,20.0179 13.1273,21.45574 0,0.83281 2.11134,3.95366 4.69187,6.93523 4.99315,5.76913 5.5773,8.49426 3.45722,16.12829 -1.18569,4.2695 -1.38018,4.39863 -6.62488,4.39863 -5.29285,0 -5.66943,-0.26069 -18.41909,-12.75082 z"
       id="path31652" />
    <path
       style="fill:#3949ab;fill-opacity:1;stroke-width:1.03677;stroke-linecap:round;stroke-linejoin:round;stroke-miterlimit:4;stroke-dasharray:none"
       d="m 34.005923,379.60737 c -0.798309,-0.0729 -2.47787,-0.13765 -3.732357,-0.1438 -3.5691,-0.0175 -6.807939,-0.23448 -7.945563,-0.53229 -0.331789,-0.0869 -0.491624,-0.26537 -1.328366,-1.48363 -1.340357,-1.95151 -2.127399,-2.91085 -3.756731,-4.57919 l -1.421853,-1.45589 0.365992,-0.66034 c 1.197741,-2.16102 3.711169,-5.65889 5.729221,-7.97321 1.939521,-2.22425 6.921153,-5.75353 11.001053,-7.79378 2.163174,-1.08175 2.519157,-1.20583 3.51375,-1.22473 1.701747,-0.0323 2.820876,-0.45464 4.972759,-1.87645 3.236756,-2.13862 11.551669,-8.73264 13.295823,-10.54407 0.376278,-0.3908 1.141407,-1.24706 1.700286,-1.90282 1.875704,-2.20083 2.492531,-2.77772 3.450619,-3.22717 1.582698,-0.74246 3.98597,-1.36237 6.554304,-1.69066 2.032781,-0.25982 4.49749,-0.36877 10.678689,-0.47201 6.610869,-0.11042 8.674157,-0.22896 11.94908,-0.6865 l 0.492816,-0.0689 0.633922,1.33602 c 0.348657,0.73481 1.053852,2.19913 1.567099,3.25404 l 0.933178,1.91801 -0.05664,1.50331 c -0.03115,0.82682 -0.245277,2.97293 -0.475832,4.76913 -0.230554,1.79619 -0.467201,3.86743 -0.525882,4.60274 -0.275306,3.44978 -0.01274,5.78397 0.89187,7.92854 0.441961,1.04777 0.68468,2.10035 0.919326,3.98677 0.583515,4.69111 1.643939,7.43345 4.260725,11.01854 0.462028,0.633 0.87116,1.20124 0.909181,1.26276 0.128026,0.20715 -2.779105,1.88799 -4.613933,2.66768 l -1.031725,0.43842 -0.591473,-0.24326 c -0.325309,-0.1338 -0.653336,-0.24437 -0.728947,-0.24572 -0.07561,-10e-4 -0.658792,-0.45114 -1.295957,-0.99953 -3.023918,-2.60258 -5.516849,-4.18288 -10.437538,-6.61651 -2.875432,-1.42211 -3.841985,-1.64505 -8.345966,-1.9251 -1.026398,-0.0638 -2.309396,-0.1789 -2.851106,-0.25573 -2.40655,-0.34132 -17.280661,-0.26759 -18.609949,0.0923 -0.85583,0.23167 -1.84165,0.72787 -2.294355,1.15482 -0.208121,0.19629 -0.406867,0.36037 -0.441658,0.36462 -0.141509,0.0173 -1.753512,1.91699 -3.072602,3.62095 -0.772499,0.99788 -1.601107,2.01992 -1.841352,2.27118 -0.551464,0.57677 -1.521509,1.2941 -3.233252,2.39093 -0.739733,0.474 -1.756632,1.15853 -2.259773,1.52118 -0.629947,0.45405 -1.002084,0.6551 -1.195105,0.64567 -0.154167,-0.008 -0.933466,-0.0734 -1.731776,-0.14631 z"
       id="path31691" />
  </g>
</svg>
