<?xml version="1.0" encoding="UTF-8" standalone="no"?>
<!-- Created with Inkscape (http://www.inkscape.org/) -->

<svg
   width="512"
   height="512"
   viewBox="0 0 512 512"
   version="1.1"
   id="svg5"
   inkscape:version="1.1.1 (3bf5ae0d25, 2021-09-20)"
   sodipodi:docname="exclamation.svg"
   xmlns:inkscape="http://www.inkscape.org/namespaces/inkscape"
   xmlns:sodipodi="http://sodipodi.sourceforge.net/DTD/sodipodi-0.dtd"
   xmlns="http://www.w3.org/2000/svg"
   xmlns:svg="http://www.w3.org/2000/svg">
  <sodipodi:namedview
     id="namedview7"
     pagecolor="#505050"
     bordercolor="#ffffff"
     borderopacity="1"
     inkscape:pageshadow="0"
     inkscape:pageopacity="0"
     inkscape:pagecheckerboard="1"
     inkscape:document-units="px"
     showgrid="false"
     inkscape:zoom="1.7050781"
     inkscape:cx="256"
     inkscape:cy="255.70676"
     inkscape:current-layer="layer1" />
  <defs
     id="defs2" />
  <g
     inkscape:label="Layer 1"
     inkscape:groupmode="layer"
     id="layer1">
    <path
       style="fill:#ffff00;stroke:#000000;stroke-width:12;stroke-linecap:round;stroke-linejoin:miter;stroke-opacity:1;stroke-miterlimit:4;stroke-dasharray:none"
       d="m 230.07789,76.007571 c -1.12719,0 -2.2611,-0.122865 -3.38158,0 -7.31048,0.80162 -16.44153,24.478289 -18.23669,29.259519 -3.59106,9.56443 -5.19761,17.6323 -7.24635,27.50954 -3.39486,16.36712 -5.91793,32.59744 -7.24627,49.27918 -0.68347,8.58321 -1.73336,17.13849 -1.81164,25.75959 -0.10718,11.80178 1.77444,23.26692 2.53622,34.99943 0.27066,4.16859 0.0691,8.35597 0.24155,12.52978 0.37114,8.98051 1.90676,17.84105 3.01933,26.73955 0.68467,5.47607 0.82484,11.03572 1.44924,16.51976 1.06776,9.37791 2.2864,19.69887 5.91789,28.48951 1.43873,3.48269 3.21789,6.83038 4.71012,10.28984 1.87811,4.35405 3.18574,9.58421 8.09171,11.47981 1.21988,0.47135 1.91367,-1.17917 2.657,-1.60997 4.66815,-2.70542 7.3036,-7.94821 9.29947,-12.87979 3.89885,-9.63364 6.44661,-19.49986 9.29947,-29.46954 4.17628,-14.5945 8.31465,-29.35807 11.35259,-44.23926 1.72902,-8.4695 2.76458,-17.01831 4.58942,-25.47956 2.97158,-13.77828 5.48002,-27.33469 7.48783,-41.29933 2.14418,-14.91306 5.38654,-29.99223 3.98554,-45.14927 -0.66256,-7.16809 -2.82322,-13.98958 -5.43478,-20.64964 -1.40185,-3.57503 -2.06849,-7.36542 -3.74391,-10.84984 -1.42319,-2.95985 -3.34194,-5.71795 -4.46865,-8.81986 -1.92635,-5.3034 -5.89153,-24.204419 -10.62793,-26.949541 -4.04188,-2.34259 -6.74241,-1.161072 -10.74871,0 -2.86641,0.830715 -7.07019,0.197553 -10.02413,0"
       id="path857" />
    <path
       style="fill:#ffff00;stroke:#000000;stroke-width:12;stroke-linecap:round;stroke-linejoin:miter;stroke-opacity:1;stroke-miterlimit:4;stroke-dasharray:none"
       d="m 224.0393,396.67229 c -5.59789,-1.13446 -9.90996,4.09214 -13.40578,7.76986 -11.0139,11.587 -24.20693,24.91696 -27.53608,41.29933 -0.96704,4.75867 -0.27434,9.76329 0.4831,14.55978 0.34802,2.20384 1.3893,4.34337 2.77778,6.08985 2.83969,3.57187 8.26678,9.80469 14.00959,10.00988 4.08271,0.14587 8.20986,-0.30442 12.19803,-1.19001 10.35226,-2.29874 26.11142,-17.83961 29.83075,-27.64955 2.03005,-5.35436 3.71415,-10.85876 4.95168,-16.44971 0.8306,-3.75253 -1.82162,-10.16838 -3.14011,-12.80978 -2.78473,-5.57882 -10.83031,-10.55554 -15.45883,-14.83978 -1.23569,-1.14376 -2.54271,-2.25643 -3.50244,-3.63992 -0.64095,-0.92396 -0.31791,-2.46234 -1.20769,-3.14995 -1.71922,-1.32861 -8.11045,-0.55438 -9.90335,-1.04997 -1.28949,-0.35645 -2.33495,-1.30666 -3.50243,-1.95998"
       id="path863" />
  </g>
</svg>
