<?xml version="1.0" encoding="UTF-8" standalone="no"?>
<!-- Created with Inkscape (http://www.inkscape.org/) -->

<svg
   width="512"
   height="512"
   viewBox="0 0 512 512"
   version="1.1"
   id="svg5"
   inkscape:version="1.1.1 (3bf5ae0d25, 2021-09-20)"
   sodipodi:docname="ice.svg"
   xmlns:inkscape="http://www.inkscape.org/namespaces/inkscape"
   xmlns:sodipodi="http://sodipodi.sourceforge.net/DTD/sodipodi-0.dtd"
   xmlns="http://www.w3.org/2000/svg"
   xmlns:svg="http://www.w3.org/2000/svg">
  <sodipodi:namedview
     id="namedview7"
     pagecolor="#505050"
     bordercolor="#ffffff"
     borderopacity="1"
     inkscape:pageshadow="0"
     inkscape:pageopacity="0"
     inkscape:pagecheckerboard="1"
     inkscape:document-units="px"
     showgrid="false"
     showguides="false"
     inkscape:zoom="1.7050781"
     inkscape:cx="256"
     inkscape:cy="255.70676"
     inkscape:current-layer="layer1" />
  <defs
     id="defs2" />
  <g
     inkscape:label="Layer 1"
     inkscape:groupmode="layer"
     id="layer1">
    <path
       style="fill:none;stroke:#000000;stroke-width:12;stroke-linecap:round;stroke-linejoin:miter;stroke-opacity:1;stroke-miterlimit:4;stroke-dasharray:none"
       d="m 99.858247,128.13969 c 0.241533,1.81997 0.674323,3.62467 0.724583,5.45991 0.0998,3.6423 -1.28062,7.17505 -1.811567,10.77982 -0.611427,4.15117 -0.87276,8.34723 -1.207689,12.5298 -1.082689,13.52052 0.01248,27.06381 -0.845433,40.59934 -0.94361,14.88767 -4.923376,29.39425 -7.4879,44.02928 -3.525088,20.11669 -7.041677,40.89575 -6.521693,61.38896 0.138495,5.45825 0.574778,11.05876 1.449241,16.44974 0.436466,2.69077 0.873851,5.03578 1.932417,7.48987 0.133255,0.30892 -0.04151,-0.70948 -0.241552,-0.97999 -0.256507,-0.34688 -1.276847,-0.97996 -0.845432,-0.97996 10.587241,0 14.315909,4.63843 23.309068,9.51984 8.29252,4.50111 14.17123,6.02607 21.49749,12.4598 1.35629,1.19106 2.25216,2.82802 3.50243,4.12994 3.50335,3.64804 7.02075,7.29163 10.74871,10.7098 6.32728,5.80148 18.41728,11.75753 26.08685,16.44974 2.68784,1.64441 5.48325,3.37468 7.85023,5.45991 2.52123,2.22113 3.90811,4.83318 7.24634,6.1599 3.19143,1.26837 6.7692,1.28454 10.02406,2.37994 3.09915,1.043 5.31144,3.73593 8.33333,4.96993 2.56952,1.04927 5.12643,1.47891 7.60868,2.72995 3.01304,1.51856 5.47001,3.57731 8.93714,4.12994 2.15196,0.34301 3.86559,0.01 5.91781,0.28 1.0355,0.1364 1.88303,0.94592 2.89856,1.18997 7.36179,1.76916 0.39415,-0.29061 3.98546,0.48998 6.77033,1.47156 14.19296,4.44914 21.13517,2.30999 1.30089,-0.40085 2.33496,-1.39998 3.50243,-2.09998"
       id="path925" />
    <path
       style="fill:none;stroke:#000000;stroke-width:12;stroke-linecap:round;stroke-linejoin:miter;stroke-opacity:1;stroke-miterlimit:4;stroke-dasharray:none"
       d="m 444.18034,144.44942 c -5.01564,13.35761 -4.8133,27.89201 -7.36712,41.7893 -0.90198,4.90831 -2.76576,9.62169 -3.86469,14.48977 -1.86787,8.27428 -3.51169,16.607 -5.19323,24.9196 -1.79288,8.863 -2.23855,17.63459 -3.62321,26.52957 -3.36277,21.60225 1.36094,-9.89251 -2.41545,13.08977 -0.34566,2.10361 -0.72186,8.93614 -0.84536,10.00985 -0.88283,7.67497 -2.01085,13.25778 -1.69087,21.13964 0.28998,7.14276 4.47469,11.53996 5.19323,18.6197 0.31429,3.09668 -0.96845,6.43022 -1.08691,9.51983 -0.24262,6.32759 0.81902,12.68728 0.36232,19.0397 -0.41893,5.82726 -1.20776,10.63029 -1.20776,16.4497 0,0.73307 -1.27583,-0.72382 -1.93234,-1.04997 -1.67744,-0.83332 -3.41191,-2.09272 -5.43478,-1.60996 -6.90645,1.64822 -13.84792,2.87192 -20.28973,6.0199 -11.48636,5.61314 -14.48627,13.71393 -29.34773,13.08978 -8.10687,-0.34047 -16.16239,-2.83201 -24.2752,-1.18997 -4.26663,0.86356 -7.82222,4.43388 -11.47344,6.57989 -3.90001,2.29224 -6.94794,3.4055 -11.35259,4.40991 -6.4925,1.4805 -12.99078,1.02671 -19.56515,1.25998 -3.75144,0.13311 -7.47237,0.59669 -11.23181,0.42 -2.75958,-0.1297 -5.74105,-0.83999 -8.45404,-0.83999 -2.49004,0 -3.6502,2.28277 -4.95168,3.98994 -2.06041,2.70266 -4.96797,4.91592 -5.7971,8.39988 -0.54874,2.30574 -0.67963,4.5922 -1.6908,6.78987 -1.63977,3.56389 -3.73075,1.41975 -6.64247,2.37994 -6.58323,2.17094 -6.40935,3.92133 -2.41545,-2.51994"
       id="path927" />
    <path
       style="fill:none;stroke:#000000;stroke-width:12;stroke-linecap:round;stroke-linejoin:miter;stroke-opacity:1;stroke-miterlimit:4;stroke-dasharray:none"
       d="m 99.858247,128.13969 c 4.590733,2.57769 10.065593,4.63922 14.251143,8.11987 10.19657,8.47931 18.31839,19.52692 29.70998,26.45955 6.69319,4.07329 14.89629,4.85137 21.85983,8.46986 11.52409,5.98831 21.06857,15.22562 33.33319,20.01969 0.80977,0.31653 4.72146,1.60044 5.91781,1.95998 1.36284,0.40957 3.23732,-0.0137 4.46857,0.69999 1.05303,0.61035 2.17012,3.09039 3.1401,3.9899 1.65068,1.53075 3.36996,3.24065 5.07246,4.68994 4.82756,4.10955 10.02383,7.516 15.94193,9.65983 2.27885,0.82551 6.40744,3.40949 8.93715,2.30996 2.49337,-1.08374 6.30346,-5.47442 7.971,-6.99986 5.64657,-5.1654 11.12303,-9.8866 17.1497,-14.62976 5.35505,-4.21457 10.41169,-9.01047 16.06272,-12.80982 9.87642,-6.64019 19.68182,-10.87604 30.55541,-15.53973 10.14034,-4.34921 20.38389,-8.67631 31.40084,-10.14984 12.34875,-1.65167 25.02929,-0.43082 37.43944,-1.32997 5.44041,-0.39418 10.5039,-2.09994 16.06271,-2.09994 4.11699,0 7.68218,1.02562 11.71492,1.60996 4.27745,0.6198 8.37314,-1.27522 12.56035,-1.60996 2.05482,-0.16428 4.13783,1.01874 6.28014,0.97995 3.93295,-0.0712 7.77523,-1.0708 11.59415,-2.02996 0.55406,-0.13916 1.69079,-0.85127 1.69079,-0.28 0,0.12093 -2.94697,2.5905 -2.65693,1.74997 0.86274,-2.50023 2.57646,-4.61992 3.86469,-6.92988"
       id="path929" />
    <path
       style="fill:none;stroke:#000000;stroke-width:12;stroke-linecap:round;stroke-linejoin:miter;stroke-opacity:1;stroke-miterlimit:4;stroke-dasharray:none"
       d="m 244.90586,216.19824 c -0.20127,0.88666 -0.51939,1.75468 -0.60381,2.65997 -0.51087,5.47846 0.28631,11.10558 -0.24155,16.65972 -0.85631,9.01009 -2.89856,18.00449 -2.89856,27.08957 0,11.14051 1.37435,22.00854 0.72466,33.17944 -0.36489,6.27395 -1.16742,12.49176 -1.57009,18.75967 -0.27395,4.26418 -0.14393,8.55032 -0.48311,12.80981 -0.47995,6.02746 -1.49459,11.78514 -1.69079,17.84969 -0.15858,4.90187 0.63958,9.81566 0.96621,14.69978 0.40074,5.99226 0.68096,11.98696 0.84536,17.98969 0.085,3.10317 -0.075,6.22171 0.24155,9.30985 0.33435,3.26198 5.28393,10.43876 6.64254,14.41975 1.13833,3.33552 2.54057,7.62641 2.77771,11.19981 0.0378,0.5692 0.43319,4.96566 -0.48303,2.30996"
       id="path931" />
    <path
       style="fill:none;stroke:#000000;stroke-width:12;stroke-linecap:round;stroke-linejoin:miter;stroke-opacity:1;stroke-miterlimit:4;stroke-dasharray:none"
       d="m 99.858247,128.13969 c 2.093383,0.69999 4.097903,1.76821 6.280143,2.09996 0.0121,0.002 4.91604,-4.88768 5.91788,-5.8099 13.66328,-12.57737 32.03953,-19.28483 48.06737,-28.279532 9.7336,-5.462421 19.99929,-10.998694 28.86462,-17.84971 6.31043,-4.876621 11.77761,-10.272306 18.35739,-14.839741 3.42568,-2.377979 7.46333,-3.854231 11.11111,-5.809904 3.91439,-1.033019 6.63033,-4.05762 10.02405,-5.949904 5.5547,-3.097203 11.40309,-5.629147 16.90815,-8.819856 3.45265,-2.001144 7.028,-3.826908 10.26568,-6.159901 6.38777,-4.602878 12.46477,-11.732175 20.28973,-13.999767 1.17275,-0.33985 7.5855,5.884742 8.33334,6.789877 1.62209,1.963264 2.66297,4.491074 3.86469,6.719895 1.61072,2.987396 2.8402,6.5696 4.8309,9.309851 6.06973,8.355172 14.40538,14.709077 21.49749,22.119631 6.6107,6.907534 12.95687,15.979582 21.37672,20.859661 5.68841,3.296955 11.71897,4.631397 17.51195,7.48987 8.70248,4.29413 16.2636,11.12959 25.12071,14.97976 3.71291,1.61399 4.12688,1.6533 8.21248,2.16996 2.57914,0.32615 5.71968,-0.37774 8.09179,0.83999 2.13787,1.09749 4.12662,3.11092 6.15936,4.40992 0.0975,0.0623 2.7292,1.61124 3.14011,2.23997 1.09358,1.67332 1.79326,3.58431 2.89855,5.24992 2.14692,3.23526 4.65379,6.16168 6.40092,9.65982 1.3134,2.62973 2.22668,5.62681 3.62313,8.18989 2.11255,3.87739 5.54505,7.15902 10.02413,7.69986 1.41249,0.17056 4.04387,-0.0576 5.55556,0.48998 1.03261,0.37405 -0.47547,2.16742 -0.96621,3.14995"
       id="path933" />
    <path
       style="fill:none;stroke:#000000;stroke-width:12;stroke-linecap:round;stroke-linejoin:miter;stroke-opacity:1;stroke-miterlimit:4;stroke-dasharray:none"
       d="m 424.13209,409.11505 c -3.8741,-3.76946 -6.10754,-2.96307 -9.54102,1.19 -5.44454,6.58561 -10.06499,13.84287 -10.26561,22.67963 -0.14201,6.25499 1.1354,15.28496 -1.08699,21.13968 -2.28595,6.02216 -10.20268,7.13816 -15.57961,7.27985 -1.75401,0.0462 -3.41527,0.88184 -5.19322,0.97995 -8.88662,0.49042 -12.07597,-0.70809 -17.87429,8.0499 -1.75248,2.64702 -2.64049,4.19786 -3.26088,7.27986 -2.4158,12.00126 2.12674,8.10424 8.57481,13.64977 4.21812,3.62769 6.99801,7.24474 12.19803,9.72988 0.99816,0.47703 4.41452,0.74663 4.95167,0.76998 11.12003,0.48334 11.41124,-14.37416 19.44438,-17.4297 9.33742,-3.55165 18.15051,7.08396 25.96606,9.93979 5.41606,1.97905 10.63463,-1.54362 15.09651,-3.98991 2.93328,-1.60821 6.02674,-2.9621 8.81643,-4.82989 11.1584,-7.4709 22.97621,-23.49457 26.3284,-36.60947 5.14819,-20.14146 -12.57234,-25.58795 -28.38152,-29.32946 -8.49124,-2.0096 -18.04665,-4.09112 -26.69072,-2.17 -10.44009,2.32028 -15.33219,5.51708 -22.94673,12.66982"
       id="path935" />
    <path
       style="fill:none;stroke:#000000;stroke-width:12;stroke-linecap:round;stroke-linejoin:miter;stroke-opacity:1;stroke-miterlimit:4;stroke-dasharray:none"
       d="m 360.84737,418.8449 c -1.52979,1.16665 -3.25664,2.11244 -4.58935,3.49996 -1.90722,1.98566 -4.63757,10.21736 -4.8309,11.1298 -1.72717,8.15135 -0.0907,12.97433 6.40092,18.26968 1.14598,0.93481 2.6341,1.8204 4.10631,1.67999 5.10327,-0.48673 10.1842,-1.67744 14.97573,-3.49993 1.80934,-0.6882 3.18902,-2.29933 4.34787,-3.84994 4.2058,-5.62767 9.23266,-13.61305 4.58934,-20.78967 -4.43788,-6.85911 -13.16699,-4.83832 -19.68592,-4.12994"
       id="path937" />
    <path
       style="fill:none;stroke:#000000;stroke-width:12;stroke-linecap:round;stroke-linejoin:miter;stroke-opacity:1;stroke-miterlimit:4;stroke-dasharray:none"
       d="m 105.77606,392.87532 c -1.632,-5.58076 -8.824632,-12.72412 -15.217283,-10.9898 -7.425124,2.01443 -17.190359,8.7164 -15.94201,17.63972 0.497364,3.5552 2.923055,7.66012 5.676332,9.93982 3.921497,3.247 9.777783,4.21498 10.024126,10.63982 0.111283,2.90236 -0.979802,5.45241 -1.690793,8.18987 -1.467018,5.6483 -3.81298,12.809 -4.589419,18.4797 -1.362407,9.9503 3.150763,19.42619 9.541023,26.94956 2.326691,2.73926 4.548577,6.05341 7.971004,7.48984 5.11526,2.14692 21.17525,-0.90197 24.87915,-4.47989 3.13385,-3.02725 4.9626,-8.96762 5.55549,-13.15979 0.37379,-2.64301 -0.18704,-5.90366 1.08698,-8.3299 0.80405,-1.53123 4.69966,-2.31645 6.15937,-2.7999 2.56514,-0.84956 4.83539,-2.24698 7.36712,-3.14998 4.44508,-1.58545 6.71968,-3.12329 7.60868,-8.18987 1.13204,-6.45172 -5.21965,-19.86456 -8.45411,-25.82957 -2.60356,-4.80148 -4.39209,-1.43601 -5.55549,-7.90987 -0.95103,-5.29216 10.46861,-15.25876 3.14004,-19.66967 -1.92277,-1.15727 -4.43572,-1.63151 -6.52169,-2.37994 -7.22746,-2.59314 -9.35764,2.36455 -12.19803,8.18986 -0.33421,0.68544 -0.31033,1.52971 -0.72458,2.16996 -0.66336,1.02524 -2.01596,1.99607 -2.89856,2.79994 -0.7455,0.67901 -1.72915,1.56948 -2.77777,1.67998 -13.92251,1.46717 -4.10512,-3.29676 -12.43958,-7.27989 -1.87255,-0.89491 -4.14313,-0.41793 -6.159365,-0.90997"
       id="path939" />
    <path
       style="fill:none;stroke:#000000;stroke-width:12;stroke-linecap:round;stroke-linejoin:miter;stroke-opacity:1;stroke-miterlimit:4;stroke-dasharray:none"
       d="m 50.341566,412.68499 c -0.966184,0.42 -2.060838,0.62113 -2.898553,1.25999 -3.652746,2.78567 -5.616171,12.98741 -6.038624,17.14974 -0.576618,5.68126 0.22655,11.4651 3.74395,16.16971 4.037585,5.40036 15.053448,8.94769 19.202821,2.30995 4.336728,-6.93744 2.949637,-22.33837 -0.724657,-29.25952 -0.684204,-1.28881 -2.931495,-6.64623 -5.797036,-5.45991 -1.381454,0.57192 -2.173921,2.05332 -3.260882,3.07997"
       id="path941" />
    <path
       style="fill:#00ffff;stroke-width:7.0378;stroke-linecap:round;stroke-linejoin:round;stroke-miterlimit:4;stroke-dasharray:none"
       d="m 101.80127,473.51721 c -3.558919,-3.65948 -7.223016,-8.82606 -9.241578,-13.03113 -2.799637,-5.83221 -2.94435,-11.58955 -0.518382,-20.62354 5.130179,-19.10412 4.94329,-18.13901 4.242376,-21.90798 -0.901638,-4.84832 -2.807739,-7.40255 -8.133088,-10.89859 -7.463993,-4.90003 -9.06125,-9.13371 -5.100085,-13.51825 2.379186,-2.63347 8.873621,-6.11944 10.347186,-5.55398 0.776507,0.29797 0.84644,0.66452 0.367248,1.92489 -1.411161,3.71163 1.648016,8.30484 5.542365,8.3216 2.810938,0.0121 4.500248,0.61421 4.500248,1.604 0,1.65035 2.35157,4.70833 4.34988,5.6566 2.52094,1.19626 10.7448,1.27658 13.41008,0.13098 3.62423,-1.55779 6.88985,-5.02708 8.91505,-9.4711 1.05922,-2.32431 2.24141,-4.42105 2.62709,-4.6594 0.82314,-0.50874 5.8869,0.79036 5.8869,1.51027 0,0.27047 -1.10515,2.65416 -2.4559,5.29708 -2.11534,4.13898 -2.45088,5.30045 -2.41974,8.3759 0.0199,1.96381 0.44551,4.50453 0.94582,5.64603 0.88323,2.01518 3.66257,5.25558 4.5078,5.25558 0.60388,0 5.51172,10.74777 7.01315,15.35826 0.74746,2.29522 1.20163,4.97049 1.09503,6.45019 -0.2043,2.83587 -0.46297,3.0157 -9.27264,6.44644 -8.09661,3.15306 -8.91229,3.6142 -10.41833,5.88998 -1.13782,1.71937 -1.58132,3.37869 -1.93232,7.2297 -0.52445,5.75391 -1.95968,10.8102 -3.55434,12.52187 -1.54438,1.65769 -7.96564,3.51354 -13.67545,3.95244 l -4.81315,0.36996 z"
       id="path1117" />
    <path
       style="fill:#00ffff;stroke-width:7.0378;stroke-linecap:round;stroke-linejoin:round;stroke-miterlimit:4;stroke-dasharray:none"
       d="m 234.00687,399.79746 c -2.74181,-0.60877 -6.83253,-1.3632 -9.09049,-1.67651 -2.51644,-0.34918 -5.7249,-1.35101 -8.28977,-2.58845 -2.3014,-1.11033 -5.64448,-2.52114 -7.42906,-3.13513 -1.78458,-0.61398 -4.64723,-2.06086 -6.36146,-3.21529 -3.33593,-2.24654 -6.33911,-3.37568 -11.90914,-4.47758 -3.02691,-0.5988 -3.96475,-1.13898 -7.0378,-4.05364 -4.229,-4.01102 -7.78171,-6.41446 -19.08732,-12.9127 -4.6772,-2.68836 -9.69164,-5.68783 -11.14318,-6.66548 -4.19805,-2.82748 -10.35586,-8.48383 -15.02401,-13.80055 -5.78772,-6.59183 -9.59917,-9.4324 -18.99203,-14.15427 -4.35464,-2.18912 -11.01356,-5.82408 -14.7976,-8.07769 -4.13712,-2.4639 -8.381991,-4.50404 -10.647303,-5.11723 -4.620724,-1.25077 -4.368867,-0.36303 -4.848803,-17.091 -0.567462,-19.77869 1.585212,-37.84016 8.901989,-74.6899 4.383207,-22.07531 4.453217,-22.75438 4.987937,-48.38488 0.47411,-22.72539 1.00444,-30.93897 2.45083,-37.95762 l 0.69142,-3.35509 2.08552,1.57039 c 1.14703,0.86372 6.70408,6.00196 12.34898,11.41832 15.53542,14.90646 20.52527,18.26087 32.54983,21.88156 7.11252,2.14163 11.52416,4.42702 21.80573,11.29615 4.78027,3.19371 10.80274,7.01349 13.38327,8.4884 4.38829,2.50814 13.97197,6.30508 15.91436,6.30508 0.47607,0 2.60028,1.7347 4.72046,3.85488 7.33777,7.33777 15.38836,12.47954 25.31505,16.16828 l 3.72307,1.38349 -0.3016,8.50401 c -0.16588,4.6772 -0.86114,12.32679 -1.54503,16.99908 -1.34725,9.20438 -1.53071,16.43737 -0.8705,34.31977 0.3033,8.21509 0.16127,14.59997 -0.52929,23.7942 -0.5191,6.91142 -1.21803,16.52498 -1.55317,21.36346 -0.33514,4.83849 -0.87294,11.4855 -1.19512,14.77113 -0.44423,4.53038 -0.3715,8.61584 0.30099,16.90752 0.48772,6.0135 0.89145,13.75 0.89718,17.19222 0.0187,11.23708 0.76553,15.75843 3.50183,21.20069 1.33469,2.65455 2.34404,4.87477 2.24302,4.93384 -0.10103,0.0591 -2.42698,-0.39069 -5.16879,-0.99946 z"
       id="path1156" />
    <path
       style="fill:#2c89a0;stroke-width:7.0378;stroke-linecap:round;stroke-linejoin:round;stroke-miterlimit:4;stroke-dasharray:none"
       d="m 234.0958,205.54661 c -6.95464,-3.29533 -12.50957,-7.41218 -17.45059,-12.9329 -4.01994,-4.49157 -3.9828,-4.47122 -11.08278,-6.0736 -4.83567,-1.09136 -11.85549,-4.79566 -22.23156,-11.73143 -12.54911,-8.3883 -16.46306,-10.41563 -26.06926,-13.50326 -10.29521,-3.30909 -13.9473,-5.79372 -26.69246,-18.15967 -5.52575,-5.36134 -11.10248,-10.61677 -12.39275,-11.67874 l -2.34593,-1.93085 2.34593,-2.06954 c 4.84069,-4.27039 13.98254,-9.76015 29.91066,-17.96162 28.03318,-14.434424 38.38176,-20.819433 51.60602,-31.840577 10.36827,-8.640963 11.93317,-9.704383 19.56347,-13.294279 3.43547,-1.616318 7.69786,-3.924793 9.47197,-5.129946 1.77411,-1.205153 8.10814,-4.7708 14.0756,-7.923661 13.23679,-6.993547 15.31461,-8.303846 22.02687,-13.890463 2.90779,-2.420156 6.40656,-5.141245 7.77505,-6.046865 l 2.48815,-1.646582 2.18257,1.74049 c 1.5936,1.270809 3.24763,3.84579 6.12933,9.542085 4.69786,9.286301 6.31381,11.305468 19.74993,24.678017 5.67564,5.648797 13.61832,13.727618 17.65039,17.952935 8.27451,8.67107 10.79203,10.380605 21.54294,14.628827 8.75016,3.457629 8.83246,3.500869 18.55248,9.746359 13.70488,8.80591 20.43257,11.58338 28.12481,11.61109 2.41367,0.009 3.38166,0.40575 6.61625,2.71391 2.08392,1.48705 4.21235,3.53241 4.72986,4.54525 0.5175,1.01283 2.21075,3.68894 3.76277,5.9469 1.55202,2.25796 3.76703,6.1818 4.92224,8.71963 l 2.10038,4.61426 -1.92272,-0.36171 c -5.44596,-1.02451 -14.35632,-1.06714 -19.22397,-0.092 -3.64322,0.72987 -10.11581,1.13169 -24.04581,1.49277 -21.12049,0.54747 -25.47117,1.09204 -36.06873,4.5147 -13.78342,4.45159 -37.98052,15.5231 -47.50516,21.73625 -7.81597,5.09854 -33.39898,26.20161 -39.55606,32.62925 -1.11161,1.16046 -2.29924,2.09708 -2.63917,2.08136 -0.33993,-0.0157 -3.08526,-1.1976 -6.10072,-2.62642 z"
       id="path1195" />
    <path
       style="fill:#37abc8;stroke-width:7.0378;stroke-linecap:round;stroke-linejoin:round;stroke-miterlimit:4;stroke-dasharray:none"
       d="m 252.92616,399.91239 c -0.19129,-0.7315 -1.72144,-3.98423 -3.40032,-7.2283 l -3.05251,-5.89829 -0.37437,-11.43643 c -0.20591,-6.29003 -0.66889,-14.84283 -1.02886,-19.0062 -0.65692,-7.59799 -0.54881,-12.30509 0.60739,-26.44626 1.82072,-22.26879 2.11378,-29.42096 2.13872,-52.19702 0.0227,-20.74012 0.19063,-25.60535 1.06274,-30.79038 0.5762,-3.42576 1.22982,-11.60091 1.47312,-18.42508 l 0.43736,-12.267 5.02097,-4.78938 c 4.29991,-4.10159 22.09658,-18.99857 29.51377,-24.70497 7.92975,-6.10074 33.36164,-18.15813 48.58634,-23.03503 9.40901,-3.01398 14.35025,-3.61872 32.05513,-3.92315 12.21331,-0.21001 18.22925,-0.58228 24.78351,-1.53363 8.39581,-1.21866 8.82645,-1.22663 14.36884,-0.26593 6.83002,1.18389 9.1841,1.19911 14.21763,0.0919 5.09408,-1.12049 4.83069,-1.16101 7.62429,1.17297 1.83484,1.53297 3.00605,2.05269 4.62576,2.05269 h 2.16885 l -0.73425,6.01146 c -1.66394,13.62301 -2.62184,19.22095 -4.27952,25.00919 -2.98445,10.42107 -7.63847,33.83138 -9.16508,46.10153 -0.80268,6.45153 -2.0899,15.16098 -2.86048,19.35434 -0.77058,4.19336 -1.56867,9.73562 -1.77352,12.31615 -0.20486,2.58053 -0.75156,7.851 -1.21491,11.71216 -1.60878,13.40621 -1.18318,17.55456 2.97874,29.0337 1.55483,4.28844 1.57333,4.49626 0.84982,9.54394 -0.48984,3.41748 -0.60642,7.68299 -0.34521,12.63091 0.45004,8.52463 -0.0855,17.74932 -1.04414,17.98521 -0.35336,0.087 -3.01775,0.6066 -5.92084,1.15477 -6.41943,1.21211 -16.64233,4.55006 -20.23368,6.60664 -1.45154,0.83122 -4.80341,3.06637 -7.44859,4.96701 -7.0776,5.08544 -10.12381,6.34842 -15.32857,6.35535 -2.36661,0.003 -7.64496,-0.412 -11.72966,-0.92255 -12.51023,-1.56368 -17.47707,-0.5503 -26.26764,5.35936 -7.89616,5.30837 -11.25402,6.13369 -27.49129,6.75702 -7.69322,0.29533 -15.44584,0.29832 -18.04311,0.007 -7.35569,-0.82518 -9.34373,-0.0675 -14.06863,5.36196 -4.60926,5.29656 -6.75823,8.46646 -7.18729,10.60181 -0.76084,3.78658 -0.87202,3.96771 -2.04887,3.33788 -1.43845,-0.76984 -4.46691,-0.74727 -5.946,0.0443 -0.99659,0.53336 -1.23136,0.4257 -1.52564,-0.69964 z"
       id="path1234" />
    <path
       style="fill:#37abc8;stroke-width:7.0378;stroke-linecap:round;stroke-linejoin:round;stroke-miterlimit:4;stroke-dasharray:none"
       d="m 101.21404,472.32361 c -4.06504,-4.62259 -7.640516,-10.12403 -9.07967,-13.97052 -2.097123,-5.60506 -1.729443,-10.65488 1.761496,-24.19284 2.450381,-9.50266 2.937831,-12.20387 2.697086,-14.94592 -0.399335,-4.54838 -2.338799,-7.8102 -6.545738,-11.00875 -1.918676,-1.45877 -4.621944,-3.7786 -6.007262,-5.15517 -2.119323,-2.10594 -2.518761,-2.87001 -2.518761,-4.81808 0,-2.99411 2.245517,-5.61929 6.95262,-8.12815 4.710822,-2.51085 5.332118,-2.45012 4.938745,0.48269 -0.613825,4.57641 1.565353,7.20992 6.673884,8.0653 2.4714,0.41381 2.96747,0.74137 3.80957,2.51546 0.5325,1.12184 1.67492,2.69949 2.53872,3.50591 1.40709,1.31362 2.15688,1.48774 7.20452,1.67314 3.13986,0.11533 6.61005,-0.0855 7.83886,-0.45367 3.02973,-0.90773 6.91222,-4.97748 9.56573,-10.02713 2.21663,-4.21825 2.22536,-4.22614 4.30321,-3.88895 1.14514,0.18583 2.309,0.5648 2.58635,0.84215 0.28138,0.28138 -0.40795,2.50603 -1.55954,5.03303 -2.5538,5.60395 -2.96902,8.05845 -2.08421,12.32056 0.55215,2.6597 1.22654,3.89512 3.33109,6.10228 2.73342,2.8667 4.97664,7.11812 7.89023,14.95385 1.89735,5.10267 2.17449,8.89278 0.76422,10.45112 -0.51268,0.5665 -4.33605,2.39594 -8.49636,4.06542 -8.22523,3.30068 -10.76328,5.29328 -11.35323,8.91337 -0.17197,1.05524 -0.68008,4.16191 -1.12913,6.90372 -1.06013,6.47295 -2.19564,9.08122 -4.58654,10.53521 -2.04981,1.24657 -8.02137,2.67185 -13.38347,3.19435 l -3.22566,0.31432 z"
       id="path1310" />
    <path
       style="fill:#37abc8;stroke-width:7.0378;stroke-linecap:round;stroke-linejoin:round;stroke-miterlimit:4;stroke-dasharray:none"
       d="m 53.270571,445.71166 c -5.191861,-2.74257 -6.838615,-8.88139 -4.880059,-18.19204 1.111684,-5.28477 1.216483,-5.43856 2.937597,-4.31084 0.938515,0.61494 2.359731,0.8599 4.215534,0.72659 l 2.799681,-0.20112 0.771934,2.34593 c 1.938464,5.89106 2.017513,16.10085 0.151653,19.58724 -0.833948,1.55824 -3.098609,1.57495 -5.99634,0.0442 z"
       id="path1349" />
    <path
       style="fill:#37abc8;stroke-width:7.0378;stroke-linecap:round;stroke-linejoin:round;stroke-miterlimit:4;stroke-dasharray:none"
       d="m 360.86588,446.02106 c -0.69044,-0.48361 -1.83956,-1.82455 -2.55358,-2.97986 -1.07318,-1.73645 -1.24559,-2.67691 -0.9946,-5.42541 0.31014,-3.39631 2.86706,-10.56932 4.02202,-11.28312 0.35233,-0.21776 1.4056,-0.0143 2.3406,0.45214 1.40121,0.69902 2.60479,0.73805 6.84815,0.22211 7.82535,-0.95147 10.62771,0.27705 10.66708,4.67632 0.0234,2.61481 -2.31679,7.37733 -5.147,10.47466 -1.84917,2.02371 -2.84527,2.54301 -6.82109,3.55611 -5.56692,1.41852 -6.71455,1.46067 -8.36158,0.30705 z"
       id="path1388" />
    <path
       style="fill:#37abc8;stroke-width:7.0378;stroke-linecap:round;stroke-linejoin:round;stroke-miterlimit:4;stroke-dasharray:none"
       d="m 383.2669,494.49266 c -0.9677,-0.59478 -3.87079,-3.0044 -6.45132,-5.35472 -2.58053,-2.35032 -5.81352,-4.81837 -7.18442,-5.48457 -2.9875,-1.45179 -3.18199,-2.73245 -1.08365,-7.13562 2.94527,-6.18038 5.58434,-7.87091 12.33815,-7.90353 1.59341,-0.008 4.36454,-0.26841 6.15807,-0.57936 1.79353,-0.31095 5.07651,-0.85161 7.29551,-1.20148 5.17568,-0.81605 8.99925,-2.77433 11.94003,-6.11524 3.4612,-3.93213 4.34433,-7.74018 4.3361,-18.69726 l -0.007,-8.9029 2.75065,-2.22332 c 4.08978,-3.30575 10.33906,-6.16457 15.8764,-7.26289 6.1368,-1.21722 12.23067,-0.61364 24.60747,2.43731 13.99163,3.44901 20.15654,6.66254 22.44418,11.69928 2.00394,4.41212 1.26428,8.75038 -3.01349,17.67493 -4.36366,9.10371 -12.91529,19.67944 -19.62899,24.27498 -4.25641,2.91352 -16.18451,8.82262 -17.78396,8.81006 -0.92419,-0.007 -4.45203,-1.82153 -8.57654,-4.41069 -10.15652,-6.37576 -15.39196,-7.75572 -21.99033,-5.79621 -4.12106,1.22382 -8.04208,4.9376 -11.82441,11.19945 -1.62318,2.68724 -3.44382,5.14953 -4.04588,5.47174 -1.68221,0.90029 -4.21307,0.69477 -6.15688,-0.49996 z"
       id="path1427" />
  </g>
</svg>
