<?xml version="1.0" encoding="UTF-8" standalone="no"?>
<!-- Created with Inkscape (http://www.inkscape.org/) -->

<svg
   width="512"
   height="512"
   viewBox="0 0 512 512"
   version="1.1"
   id="svg5"
   inkscape:version="1.1.1 (3bf5ae0d25, 2021-09-20)"
   sodipodi:docname="igloo.svg"
   xmlns:inkscape="http://www.inkscape.org/namespaces/inkscape"
   xmlns:sodipodi="http://sodipodi.sourceforge.net/DTD/sodipodi-0.dtd"
   xmlns="http://www.w3.org/2000/svg"
   xmlns:svg="http://www.w3.org/2000/svg">
  <sodipodi:namedview
     id="namedview7"
     pagecolor="#505050"
     bordercolor="#ffffff"
     borderopacity="1"
     inkscape:pageshadow="0"
     inkscape:pageopacity="0"
     inkscape:pagecheckerboard="1"
     inkscape:document-units="px"
     showgrid="false"
     inkscape:zoom="1.7050781"
     inkscape:cx="154.24513"
     inkscape:cy="215.2394"
     inkscape:current-layer="layer2" />
  <defs
     id="defs2" />
  <g
     inkscape:label="Layer 1"
     inkscape:groupmode="layer"
     id="layer1">
    <path
       style="fill:#00aad4;stroke-width:9.63138;stroke-linecap:round;stroke-linejoin:round;stroke-miterlimit:4;stroke-dasharray:none"
       d="m 48.037243,411.0645 c -1.608232,-1.28245 -1.682474,-1.74883 -0.987292,-6.20243 0.41343,-2.64862 1.507947,-8.14165 2.432233,-12.20671 1.549167,-6.81325 1.620535,-8.44457 0.912982,-20.868 -0.859528,-15.09193 -0.08444,-40.6058 1.696351,-55.83696 1.26342,-10.80626 2.266191,-13.86216 10.414426,-31.73727 9.507738,-20.85754 13.941257,-27.22701 24.251634,-34.84138 7.610269,-5.62032 9.214382,-5.90295 13.772233,-2.4265 1.47773,1.12711 5.15272,4.84317 8.16665,8.25791 4.17179,4.72656 6.0121,7.61953 7.70945,12.11928 1.22626,3.25089 3.08684,7.39967 4.13461,9.21952 1.04778,1.81985 2.94162,6.33456 4.20856,10.03269 1.26692,3.69813 3.56099,9.62755 5.09792,13.17649 1.53693,3.54893 3.4246,9.14717 4.19483,12.44054 1.87158,8.00255 2.47439,26.93081 1.26879,39.84006 -1.09388,11.71279 -6.00697,46.88606 -7.35295,52.6403 l -0.89423,3.82305 -2.627,-2.30654 c -1.44486,-1.26859 -5.76069,-3.44045 -9.59074,-4.82632 -10.02577,-3.62774 -15.377208,-3.49213 -27.892849,0.70687 -5.749092,1.92881 -12.900044,3.65639 -17.778702,4.2951 -6.097478,0.79828 -9.424026,1.70754 -13.154741,3.5956 -5.793939,2.93224 -5.705697,2.92002 -7.982165,1.1047 z"
       id="path1286" />
    <path
       style="fill:#55ddff;stroke-width:9.63138;stroke-linecap:round;stroke-linejoin:round;stroke-miterlimit:4;stroke-dasharray:none"
       d="m 316.69004,440.58827 c -4.61081,-1.30042 -11.8064,-2.74609 -15.99018,-3.2126 -7.42816,-0.8283 -12.02077,-1.92378 -25.66359,-6.12151 -6.10892,-1.87965 -6.65024,-2.21205 -6.17543,-3.79216 0.28623,-0.95255 1.74514,-6.47414 3.242,-12.27017 3.93631,-15.24174 4.75058,-22.66416 3.95083,-36.01344 -0.37026,-6.18015 -0.68878,-24.0584 -0.70783,-39.72947 -0.0346,-28.45966 -0.0374,-28.504 -2.31297,-38.06113 -1.25307,-5.26255 -3.3551,-12.66668 -4.6712,-16.45362 -3.12951,-9.00488 -13.18972,-29.5083 -17.86196,-36.40393 -2.02733,-2.99207 -5.09639,-8.22913 -6.82013,-11.63792 -4.24719,-8.39906 -10.88819,-14.25078 -18.9142,-16.66625 -5.8707,-1.76683 -25.07142,-0.17662 -45.48571,3.76712 l -16.57258,3.20157 -9.32448,-1.28947 c -8.463,-1.17035 -10.14156,-1.17552 -18.16813,-0.056 -10.92119,1.52324 -10.16927,1.54729 -11.18883,-0.35779 -1.13822,-2.12677 0.36839,-8.46096 6.38946,-26.86313 2.60676,-7.96704 5.86601,-18.45848 7.24277,-23.31431 3.33085,-11.74788 5.98563,-18.68144 8.79043,-22.95821 3.76872,-5.74652 17.5878,-20.29424 38.98673,-41.04236 26.44077,-25.636649 31.24244,-28.728305 47.18149,-30.378715 13.06135,-1.352442 26.81044,-3.070142 35.47112,-4.431466 4.8477,-0.761993 10.50233,-1.102782 14.27894,-0.860581 6.6177,0.424406 8.76866,1.277474 24.64791,9.775353 7.98714,4.274373 11.61178,5.429022 24.05838,7.663983 14.87512,2.67104 18.72472,5.15176 27.20241,17.529536 5.61717,8.20127 5.8493,8.391 23.74394,19.40705 9.9403,6.11932 15.26313,9.99647 19.76211,14.39472 6.87601,6.7221 8.96268,10.32703 12.73523,22.00141 2.81553,8.7128 6.19262,15.73871 16.03025,33.35038 11.34454,20.30937 12.85746,25.37307 14.88131,49.80729 0.85418,10.31251 1.84693,17.03301 3.25809,22.05547 3.15134,11.216 4.35189,20.37248 5.60338,42.73647 0.741,13.24156 2.0485,26.7276 3.63813,37.52508 3.4855,23.67501 3.77328,30.82782 1.67268,41.5761 -0.93182,4.76786 -1.69537,11.81082 -1.69677,15.65099 -0.003,8.63643 -2.09497,21.18629 -3.67966,22.0763 -0.63368,0.35588 -2.05696,2.43264 -3.16286,4.61502 -1.10591,2.1824 -2.09494,3.97276 -2.19786,3.97857 -1.72203,0.0976 -27.81868,2.56155 -30.84351,2.91224 -3.70795,0.4299 -4.90362,0.13907 -10.78945,-2.62426 -5.77385,-2.71076 -7.29161,-3.09063 -11.88224,-2.97398 -2.89457,0.0736 -8.51345,0.0808 -12.48641,0.016 -22.4564,-0.36606 -26.07405,-0.0888 -34.91377,2.6756 -12.06329,3.77254 -19.98906,3.97442 -31.25784,0.79624 z"
       id="path1399" />
    <path
       style="fill:#2ad4ff;stroke-width:9.63138;stroke-linecap:round;stroke-linejoin:round;stroke-miterlimit:4;stroke-dasharray:none"
       d="m 142.00017,419.2348 c 2.08027,-5.36925 4.52149,-19.68054 9.29718,-54.5035 1.67435,-12.20876 2.37159,-30.92414 1.53993,-41.33469 -1.05595,-13.21832 -2.47099,-19.16198 -7.54781,-31.70331 -2.32307,-5.7387 -4.67816,-11.87871 -5.23354,-13.64446 -0.55538,-1.76576 -2.23061,-5.65249 -3.72274,-8.6372 -1.49213,-2.9847 -3.48517,-7.4994 -4.42901,-10.03269 -1.66722,-4.47486 -3.63923,-7.91996 -7.10036,-12.40433 l -1.68261,-2.18006 1.85306,-0.38573 c 7.33809,-1.5275 20.94398,-2.23738 26.64139,-1.39001 9.75508,1.45089 14.78009,1.11659 29.1711,-1.94069 9.92672,-2.10886 16.88497,-3.05946 26.5059,-3.62108 l 13.04564,-0.76154 3.11949,2.06439 c 2.2655,1.49923 3.72821,3.42441 5.34295,7.0322 1.22289,2.7323 4.19237,7.84757 6.59885,11.36729 8.90376,13.02269 17.42556,33.04038 21.27607,49.97743 1.67556,7.37029 1.76731,9.39476 1.55521,34.31864 -0.12399,14.56747 0.15296,31.0218 0.61537,36.56517 0.9168,10.99045 0.37697,17.37009 -2.53449,29.95233 l -1.64845,7.12395 -3.97192,-0.47042 c -3.00816,-0.35628 -4.51084,-1.04734 -6.193,-2.84809 -2.32562,-2.4896 -6.72238,-3.82786 -9.93062,-3.02264 -1.95365,0.49033 -5.0411,3.03491 -5.55576,4.57886 -0.23115,0.69346 -1.59986,0.60798 -5.25366,-0.32808 -7.64352,-1.95817 -18.07569,-3.05567 -29.51131,-3.10471 -11.72582,-0.0502 -14.87955,0.54842 -32.30605,6.13282 -6.28175,2.01301 -13.47169,3.90098 -15.97765,4.19551 -4.25924,0.5006 -4.51761,0.4357 -3.96316,-0.99536 z"
       id="path1173" />
  </g>
  <g
     inkscape:groupmode="layer"
     id="layer2"
     inkscape:label="bricks">
    <path
       style="fill:none;stroke:#45b5e7;stroke-width:6;stroke-linecap:round;stroke-linejoin:miter;stroke-miterlimit:4;stroke-dasharray:none;stroke-opacity:1"
       d="m 174.23296,117.09994 c 12.65833,3.38013 25.10508,7.42961 38.20046,9.1085 19.92912,2.55501 40.2428,2.07856 60.27842,2.07856 13.48215,0 27.116,0.51235 40.53207,-0.51964 4.80972,-0.36997 9.7501,0.47999 14.5499,0 2.79754,-0.27976 5.49927,-1.32434 8.31429,-1.55892 5.33576,-0.44464 10.81757,0.23625 16.1089,-0.51965 4.08636,-0.58377 7.51453,-2.51686 10.91251,-4.15713 1.08374,-0.52314 2.98395,-1.98066 3.49413,-2.56346 0.24886,-0.28429 -0.28928,-1.53255 0,-1.76443 0.58972,-0.4727 0.62073,-0.34709 0.23676,-1.00236"
       id="path1625" />
    <path
       style="fill:none;stroke:#45b5e7;stroke-width:6;stroke-linecap:round;stroke-linejoin:miter;stroke-miterlimit:4;stroke-dasharray:none;stroke-opacity:1"
       d="m 140.84779,162.21213 c 6.37565,3.58913 11.83659,8.90562 19.08205,10.8498 9.18157,2.46369 29.28062,0.10285 38.28487,-1.67995 8.24066,-1.63162 16.11434,-3.62735 24.51682,-4.26994 12.82125,-0.98051 26.02757,-1.88996 38.88867,-1.88996 7.4576,0 9.08091,0.36298 16.42505,0 6.3416,-0.31343 12.52558,-1.74579 18.84049,-2.09998 10.7256,-0.60158 21.4064,0.32586 32.1255,0.42 13.30218,0.11681 26.67153,-0.0964 39.97566,-0.28 9.13923,-0.12612 16.36048,-5.11002 24.99986,-7.20987"
       id="path5650"
       sodipodi:nodetypes="cssssssssc" />
    <path
       style="fill:none;stroke:#45b5e7;stroke-width:6;stroke-linecap:round;stroke-linejoin:miter;stroke-miterlimit:4;stroke-dasharray:none;stroke-opacity:1"
       d="m 128.89132,203.86143 c -0.0805,1.39998 -0.48639,2.81919 -0.24148,4.19992 2.77919,15.66819 44.58454,7.5596 53.2606,6.78992 16.03661,-1.42267 32.21914,-3.11385 48.30899,-3.77996 7.7195,-0.31959 15.46398,-0.11605 23.18829,-0.20998 5.47505,-0.0666 10.95606,-0.47639 16.42504,-0.21002 12.06818,0.58779 21.93621,2.72995 34.29933,2.72995 6.05697,0 12.13711,-1.17999 18.11583,-2.02996 12.93832,-1.83937 25.65459,-4.54845 38.6472,-6.0199 12.85531,-1.4559 25.71982,-1.54076 38.64719,-2.09994 4.10604,-0.17761 8.12671,0.18347 12.19803,-0.56 3.34967,-0.61168 6.4594,-2.05621 9.66172,-3.14995"
       id="path5652"
       sodipodi:nodetypes="cssssssssssc" />
    <path
       style="fill:none;stroke:#45b5e7;stroke-width:6;stroke-linecap:round;stroke-linejoin:miter;stroke-miterlimit:4;stroke-dasharray:none;stroke-opacity:1"
       d="m 446.03966,233.82095 c -9.0531,7.90843 -20.8789,10.66667 -31.64239,15.32975 -11.1444,4.8281 -22.32453,10.85386 -34.42011,12.94978 -10.17172,1.76256 -20.438,1.45215 -30.67619,2.16996 -17.17488,1.20415 -1.18108,0.50197 -11.47336,1.39999 -7.27787,0.635 -14.60486,0.7696 -21.85983,1.67994 -4.72928,0.59342 -9.79045,1.47046 -14.61347,1.75 -6.07687,0.35222 -12.40168,-1.34049 -18.47816,-1.75 -1.67439,-0.11284 -5.46541,-0.38493 -7.12558,-0.20998 -3.19099,0.33627 -5.68606,1.5655 -8.93714,1.32997 -3.31641,-0.24026 -6.69031,-2.15581 -10.02413,-2.79993 -3.12961,-0.60468 -6.03982,-0.28108 -8.45403,-2.51998"
       id="path5660" />
    <path
       style="fill:none;stroke:#45b5e7;stroke-width:6;stroke-linecap:round;stroke-linejoin:miter;stroke-miterlimit:4;stroke-dasharray:none;stroke-opacity:1"
       d="m 457.51303,319.70951 c -0.80515,0.18667 -1.62161,0.32994 -2.41545,0.56 -2.6986,0.78208 -5.01897,2.79406 -7.72945,3.63996 -5.84628,1.82455 -12.00884,2.4154 -17.99506,3.63993 -2.41956,0.49494 -4.76648,1.37664 -7.24635,1.53998 -6.11295,0.40265 -12.24686,0.18729 -18.35739,0.62998 -7.38339,0.5349 -14.65604,1.9547 -22.10137,1.18997 -12.18954,-1.25203 -24.45213,-4.04741 -36.47323,-6.36988 -3.36782,-0.65066 -6.71422,-1.87173 -10.1449,-2.16996 -4.37166,-0.38004 -9.16597,-0.70735 -13.52649,-0.14 -3.32963,0.43322 -6.65005,1.37701 -10.02413,1.53998 -4.16692,0.20127 -7.97185,0.38512 -12.07725,0.97996 -4.52224,0.65524 -8.45356,-1.56323 -12.80183,-2.02996 -1.86482,-0.20017 -3.61067,0.81797 -5.43478,0.83999 -1.33166,0.0161 -2.65698,-0.18667 -3.98546,-0.28"
       id="path5662" />
    <path
       style="fill:none;stroke:#45b5e7;stroke-width:6;stroke-linecap:round;stroke-linejoin:miter;stroke-miterlimit:4;stroke-dasharray:none;stroke-opacity:1"
       d="m 460.41158,374.02864 c -9.11262,18.29181 -33.17067,11.61807 -49.27513,10.98979 -4.05287,-0.15811 -8.36503,-0.35756 -12.43957,-0.20997 -4.36437,0.15808 -8.2202,1.02318 -12.68113,0.69999 -5.44527,-0.39451 -10.67929,-1.50302 -16.06271,-2.30996 -4.85766,-0.72813 -14.62984,-0.79929 -18.96127,-2.37998 -3.31421,-1.20946 -6.08202,-3.16466 -9.54103,-4.12994 -5.26169,-1.46834 -11.26175,-0.28427 -16.42504,-2.02996 -6.78598,-2.29431 -13.22978,-5.45822 -19.9274,-7.90986 -6.72091,-2.46016 -22.66646,0.65241 -26.8115,-1.74997"
       id="path5666" />
    <path
       style="fill:none;stroke:#45b5e7;stroke-width:6;stroke-linecap:round;stroke-linejoin:miter;stroke-miterlimit:4;stroke-dasharray:none;stroke-opacity:1"
       d="m 238.67347,270.01035 c -5.92452,1.37572 -12.2706,1.56413 -18.35739,1.25998 -6.17604,-0.3086 -12.62352,-0.77606 -18.71972,-1.81998 -7.53565,-1.29041 -14.82426,-2.43235 -22.4637,-3.00995 -2.20766,-0.16692 -4.54239,-0.56604 -6.76324,-0.28 -2.90901,0.37468 -7.86454,1.92461 -10.50724,3.14995 -5.47215,2.53728 -9.27386,5.23995 -15.21728,6.2999 -0.43686,0.0779 -0.82385,0.78256 -1.20776,0.56 -1.56478,-0.90715 -3.69428,-1.9312 -5.31393,-2.86996"
       id="path5670" />
    <path
       style="fill:none;stroke:#45b5e7;stroke-width:6;stroke-linecap:round;stroke-linejoin:miter;stroke-miterlimit:4;stroke-dasharray:none;stroke-opacity:1"
       d="m 255.09851,323.76947 c -0.85671,0.2731 -1.98735,0.9029 -3.01933,0.76998 -6.17453,-0.79528 -11.9892,-1.0382 -18.23661,-0.76998 -5.13866,0.22062 -9.97482,1.81995 -15.21736,1.81995 -8.11816,0 -16.26582,-1.02168 -24.39597,-1.18997 -6.12738,-0.12684 -12.22474,0.64252 -18.35739,0.83999 -2.25774,0.0727 -20.22647,-0.59329 -20.89369,-0.97999 -0.35018,-0.20296 -0.1953,-0.78787 -0.24155,-1.18997"
       id="path5672" />
    <path
       style="fill:none;stroke:#45b5e7;stroke-width:6;stroke-linecap:round;stroke-linejoin:miter;stroke-miterlimit:4;stroke-dasharray:none;stroke-opacity:1"
       d="m 254.37385,370.31869 c -6.14213,2.6753 -14.21136,1.94982 -20.65206,0.34998 -6.31708,-1.56913 -11,-5.8204 -17.75351,-5.66989 -5.0814,0.11325 -10.46078,1.14689 -15.33813,2.51994 -2.8979,0.8158 -5.50986,1.96873 -8.57481,2.03 -3.02921,0.0606 -5.8609,-1.182 -8.69566,-2.03 -3.33287,-0.99701 -7.02156,-0.70645 -10.26561,-1.95994 -3.63725,-1.40543 -6.56484,-3.72549 -9.78257,-5.80993"
       id="path5674" />
    <path
       style="fill:none;stroke:#45b5e7;stroke-width:6;stroke-linecap:round;stroke-linejoin:miter;stroke-miterlimit:4;stroke-dasharray:none;stroke-opacity:1"
       d="m 316.69244,385.36845 c -4.9845,5.21456 -4.37325,12.31956 -4.8309,19.10968 -0.35395,5.25157 -0.92894,10.49076 -1.81157,15.67973 -0.91654,5.38838 -3.02432,13.63832 -0.72465,18.96968 0.43435,1.00697 -1.00616,-3.72617 0,-3.28995 2.68027,1.16206 4.90981,3.16712 7.36472,4.75068"
       id="path5676" />
    <path
       style="fill:none;stroke:#45b5e7;stroke-width:6;stroke-linecap:round;stroke-linejoin:miter;stroke-miterlimit:4;stroke-dasharray:none;stroke-opacity:1"
       d="m 419.34894,390.05835 c -2.46435,11.35561 0.30547,23.11027 -1.32846,34.57943 -0.12775,0.89666 -2.87971,8.00813 -3.38166,7.6299 -0.41954,-0.31612 -0.56358,-0.88667 -0.84536,-1.33"
       id="path5678" />
    <path
       style="fill:none;stroke:#45b5e7;stroke-width:6;stroke-linecap:round;stroke-linejoin:miter;stroke-miterlimit:4;stroke-dasharray:none;stroke-opacity:1"
       d="m 356.42655,339.51919 c 1.52274,7.90459 0.3006,16.12419 0.12077,24.14962 -0.0281,1.25351 -0.62696,5.95138 0.24155,7.20988"
       id="path5680" />
    <path
       style="fill:none;stroke:#45b5e7;stroke-width:6;stroke-linecap:round;stroke-linejoin:miter;stroke-miterlimit:4;stroke-dasharray:none;stroke-opacity:1"
       d="m 436.49864,346.37908 c 0.40259,1.00332 0.95935,1.9578 1.20776,3.00995 0.50169,2.12494 0.38409,4.35323 0.72459,6.50988 0.88731,5.62017 3.93845,18.42386 2.89855,24.14963"
       id="path5682" />
    <path
       style="fill:none;stroke:#45b5e7;stroke-width:6;stroke-linecap:round;stroke-linejoin:miter;stroke-miterlimit:4;stroke-dasharray:none;stroke-opacity:1"
       d="m 302.19974,275.47025 c 0.40257,1.04999 0.9805,2.04863 1.20769,3.14995 0.17385,0.84275 0.12078,7.32437 0.12078,7.62987 0,6.66914 -0.12161,13.37959 -0.72459,20.01969"
       id="path5684" />
    <path
       style="fill:none;stroke:#45b5e7;stroke-width:6;stroke-linecap:round;stroke-linejoin:miter;stroke-miterlimit:4;stroke-dasharray:none;stroke-opacity:1"
       d="m 389.15586,269.17035 c -0.0474,0.27495 -0.69381,3.07406 -0.48311,3.98994 2.25142,9.78649 -0.368,-5.00175 1.81164,6.92988 1.36301,7.46126 0.85871,15.14593 0.96614,22.67963 0.0752,5.27594 0.72466,10.52921 0.72466,15.81973 0,5.10909 -1.0571,11.40892 0.96613,16.09976"
       id="path5686" />
    <path
       style="fill:none;stroke:#45b5e7;stroke-width:6;stroke-linecap:round;stroke-linejoin:miter;stroke-miterlimit:4;stroke-dasharray:none;stroke-opacity:1"
       d="m 393.14132,209.74134 c 0.34011,1.75474 0.71368,-3.6337 -0.24148,-3.07997 -0.6686,0.3876 1.75361,9.46321 2.1739,10.84983 3.37513,11.13523 8.94168,19.78102 4.71012,31.28949"
       id="path5688" />
    <path
       style="fill:none;stroke:#45b5e7;stroke-width:6;stroke-linecap:round;stroke-linejoin:miter;stroke-miterlimit:4;stroke-dasharray:none;stroke-opacity:1"
       d="m 325.14648,217.23121 c 5.81073,10.65206 4.55906,26.77209 2.29467,38.21936 -0.90135,4.55665 -3.51912,8.80166 -4.95167,13.22981"
       id="path5690" />
    <path
       style="fill:none;stroke:#45b5e7;stroke-width:6;stroke-linecap:round;stroke-linejoin:miter;stroke-miterlimit:4;stroke-dasharray:none;stroke-opacity:1"
       d="m 246.28214,212.54127 c -1.13232,7.08567 -1.52417,14.26495 -2.17389,21.41968"
       id="path5692" />
    <path
       style="fill:none;stroke:#45b5e7;stroke-width:6;stroke-linecap:round;stroke-linejoin:miter;stroke-miterlimit:4;stroke-dasharray:none;stroke-opacity:1"
       d="m 351.47487,167.60202 c -0.32204,1.04998 -0.80319,2.06384 -0.96614,3.14995 -1.14109,7.60612 0.63903,16.21918 1.20769,23.79961 0.28831,3.84325 -0.10088,7.76102 0,11.61981"
       id="path5694" />
    <path
       style="fill:none;stroke:#45b5e7;stroke-width:6;stroke-linecap:round;stroke-linejoin:miter;stroke-miterlimit:4;stroke-dasharray:none;stroke-opacity:1"
       d="m 265.72645,170.40199 c 1.82932,8.70545 1.65427,18.19554 0.4831,27.01954"
       id="path5698" />
    <path
       style="fill:none;stroke:#45b5e7;stroke-width:6;stroke-linecap:round;stroke-linejoin:miter;stroke-miterlimit:4;stroke-dasharray:none;stroke-opacity:1"
       d="m 184.80899,182.23178 c 0.78962,5.47861 3.07827,20.73954 0.24155,24.84958"
       id="path5700" />
    <path
       style="fill:none;stroke:#45b5e7;stroke-width:6;stroke-linecap:round;stroke-linejoin:miter;stroke-miterlimit:4;stroke-dasharray:none;stroke-opacity:1"
       d="m 218.50444,136.59253 c 0.36233,1.00332 1.14722,1.94492 1.08698,3.00995 -0.043,0.76011 -2.03717,6.82455 -2.41545,8.53986 -1.23047,5.5796 -1.9307,11.15959 -3.74391,16.58973"
       id="path5702" />
    <path
       style="fill:none;stroke:#45b5e7;stroke-width:6;stroke-linecap:round;stroke-linejoin:miter;stroke-miterlimit:4;stroke-dasharray:none;stroke-opacity:1"
       d="m 298.45583,137.15253 c -2.27605,6.65432 0.80051,13.41891 3.74391,19.38967"
       id="path5704" />
    <path
       style="fill:none;stroke:#45b5e7;stroke-width:6;stroke-linecap:round;stroke-linejoin:miter;stroke-miterlimit:4;stroke-dasharray:none;stroke-opacity:1"
       d="m 266.93421,83.183419 c 0,10.049832 -0.31737,2.844591 2.05312,17.499711 0.68197,4.21619 0.57452,8.19569 2.89855,11.89981"
       id="path5706" />
    <path
       style="fill:none;stroke:#45b5e7;stroke-width:6;stroke-linecap:round;stroke-linejoin:miter;stroke-opacity:1;stroke-miterlimit:4;stroke-dasharray:none"
       d="m 195.57775,276.9017 c 0.70533,1.38572 1.57618,2.69896 2.11598,4.15715 0.815,2.20162 0.59175,6.0765 1.0393,8.31425 0.46208,2.31042 1.17393,3.8941 2.062,5.69949 0.47545,0.96657 0.30354,3.06774 0.51962,4.1482 0.44536,2.22695 1.86336,4.0313 2.59822,6.23568 0.45177,1.35518 -0.14739,4.5009 0.51962,5.71564 0.41504,0.75586 0.94824,0.61602 0.94824,1.34597"
       id="path9062" />
    <path
       style="fill:none;stroke:#45b5e7;stroke-width:6;stroke-linecap:round;stroke-linejoin:miter;stroke-opacity:1;stroke-miterlimit:4;stroke-dasharray:none"
       d="m 233.9433,333.15281 c 0.59345,0.86608 1.46814,1.59583 1.78035,2.59823 0.65128,2.091 -0.12117,18.70708 -1.51088,18.70708"
       id="path9064" />
    <path
       style="fill:none;stroke:#45b5e7;stroke-width:6;stroke-linecap:round;stroke-linejoin:miter;stroke-opacity:1;stroke-miterlimit:4;stroke-dasharray:none"
       d="m 181.36555,339.40822 c 0.0789,6.82254 -0.98983,12.6077 -0.98983,19.34089"
       id="path9066" />
    <path
       style="fill:none;stroke:#45b5e7;stroke-width:6;stroke-linecap:round;stroke-linejoin:miter;stroke-opacity:1;stroke-miterlimit:4;stroke-dasharray:none"
       d="m 149.36204,246.03852 c 1.98125,2.09418 1.31783,5.9867 2.02563,8.11021 0.48197,1.44598 1.40221,3.20577 1.40221,4.92369"
       id="path9068" />
    <path
       style="fill:none;stroke:#45b5e7;stroke-width:6;stroke-linecap:round;stroke-linejoin:miter;stroke-opacity:1;stroke-miterlimit:4;stroke-dasharray:none"
       d="m 203.73139,241.42121 c 6.38764,9.45493 8.59242,12.05529 8.59242,23.27155"
       id="path9070" />
    <path
       style="fill:none;stroke:#45b5e7;stroke-width:6;stroke-linecap:round;stroke-linejoin:miter;stroke-opacity:1;stroke-miterlimit:4;stroke-dasharray:none"
       d="m 203.75308,376.22895 c 2.62033,6.30139 2.10341,12.86735 2.471,19.48432 0.25482,4.58698 0.88873,4.40433 0.51962,8.83391 -0.56163,6.73982 -0.51962,0.27461 -0.51962,2.59822"
       id="path9072" />
  </g>
  <g
     inkscape:groupmode="layer"
     id="layer3"
     inkscape:label="outline">
    <path
       style="fill:none;stroke:#000000;stroke-width:16.4223;stroke-linecap:round;stroke-linejoin:miter;stroke-miterlimit:4;stroke-dasharray:none;stroke-opacity:1"
       d="m 133.24503,417.85378 c 4.51964,-12.20786 5.23719,-25.44418 7.27232,-38.2222 3.50735,-22.02173 6.8156,-49.82518 1.48746,-71.75042 -1.60698,-6.61277 -4.9199,-12.97985 -7.43761,-19.2548 -1.6616,-4.14123 -2.38936,-8.6608 -4.46249,-12.64495 -1.39182,-2.67482 -3.00719,-4.93438 -4.13202,-7.75937 -1.50575,-3.78169 -2.50128,-7.97391 -4.62777,-11.49542 -2.28961,-3.7916 -15.54287,-17.79841 -19.17245,-19.25479 -3.101767,-1.24459 -6.918054,-2.01305 -10.247354,-1.82009 -2.477381,0.1436 -4.315716,2.59804 -6.280627,3.83182 -7.381274,4.63477 -13.551474,10.15208 -18.511395,17.33889 -5.389459,7.80919 -8.893902,15.43567 -12.56124,24.14033 -3.785578,8.9853 -9.288706,17.84581 -10.412646,27.78052 -2.027701,17.92327 -3.189604,36.18698 -2.975023,54.21994 0.0878,7.37851 1.463248,14.94136 0.991707,22.32025 -0.189325,2.96266 -0.819799,4.04415 -1.487464,6.80146 -1.612155,6.65786 -3.140311,16.23278 -3.140311,22.32018"
       id="path892" />
    <path
       style="fill:none;stroke:#000000;stroke-width:16.4223;stroke-linecap:round;stroke-linejoin:miter;stroke-miterlimit:4;stroke-dasharray:none;stroke-opacity:1"
       d="m 37.548117,414.40513 c 3.305564,2.23522 6.489922,4.66109 9.916687,6.70565 3.777628,2.25389 13.220484,-4.51548 17.02384,-5.46028 3.372394,-0.83774 6.965996,-0.65012 10.412633,-1.14954 4.196326,-0.60805 9.037035,-2.16865 13.05711,-3.64023 7.159532,-2.62083 14.299753,-5.4949 21.651603,-2.29905 2.79632,1.21556 5.71893,2.07401 8.42933,3.44859 1.98355,1.00596 3.05814,3.37706 5.12363,4.21501 2.16482,0.87825 7.09091,0.17287 8.59451,1.91586 0.48834,0.56609 1.1209,1.27536 0.99171,2.01173 -0.23879,1.36102 -2.27465,4.99093 -1.98332,3.64019 0.45228,-2.0971 1.65278,-3.95952 2.47918,-5.93928"
       id="path894" />
    <path
       style="fill:none;stroke:#000000;stroke-width:16.4223;stroke-linecap:round;stroke-linejoin:miter;stroke-miterlimit:4;stroke-dasharray:none;stroke-opacity:1"
       d="m 99.427984,233.80838 c 3.959186,0.40716 7.794516,-0.76636 11.734926,-0.76636 4.35577,0 8.18209,3.11645 12.56124,2.77805 5.48489,-0.42388 10.92759,-1.19006 16.36269,-1.8201 1.29413,-0.15001 2.71054,-0.80298 3.96675,-0.67059 7.90277,0.83283 16.36055,3.06579 24.29605,1.6285 9.37806,-1.69856 18.59828,-4.45491 28.09752,-5.5561 4.85194,-0.56245 9.83695,-0.42494 14.70995,-0.67053 3.18146,-0.16035 7.02821,-1.29261 10.24735,-0.67061 1.24774,0.24109 3.51268,1.51197 4.62778,1.91592 0.74441,0.26967 1.23976,1.40104 1.98342,1.72432 5.62516,2.44532 7.31534,7.22323 9.7514,13.0281 1.1764,2.80321 3.49708,5.69881 5.28902,8.1426 3.71873,5.07145 6.32992,11.05111 9.25565,16.66828 9.7015,18.62609 15.2057,38.9695 15.2057,60.15927 0,9.6005 -0.90641,19.15729 -1.15689,28.73847 -0.24156,9.23996 1.43826,18.29423 1.65275,27.49316 0.25858,11.09032 -3.95646,28.70318 -7.60291,39.27594 -0.14657,0.42497 -1.55821,-1.71053 -1.65275,-1.82009 -0.17042,-0.19756 -5.13338,0.57415 -6.77647,0.47895 -2.93703,-0.17019 -5.67937,-1.52912 -8.59451,-1.6285 -5.90629,-0.20138 -11.78043,0.5347 -17.68497,0 -3.91448,-0.35449 -7.63885,-2.12325 -11.56954,-2.49068 -8.40786,-0.78597 -18.00569,-2.13432 -26.44478,-1.34114 -12.33832,1.15966 -24.0511,6.80853 -36.03098,9.7711 -5.11641,1.26525 -10.56492,0.007 -15.53627,2.29909 -3.15555,1.45528 -5.83986,3.76793 -8.7598,5.65191"
       id="path1027" />
    <path
       style="fill:none;stroke:#000000;stroke-width:16.4223;stroke-linecap:round;stroke-linejoin:miter;stroke-miterlimit:4;stroke-dasharray:none;stroke-opacity:1"
       d="m 116.78239,230.35975 c -0.60601,-1.11761 -1.28399,-2.1991 -1.81804,-3.35283 -2.16573,-4.67874 7.82979,-33.25931 9.75142,-38.60539 4.71969,-13.13053 6.7841,-28.08512 13.88352,-40.23389 2.32305,-3.97528 4.28992,-5.71238 7.43761,-9.10051 6.07766,-6.5419 11.8791,-13.30008 18.18072,-19.63796 2.40418,-2.418 5.29302,-4.2787 7.7682,-6.60987 13.62714,-12.834381 25.45396,-28.792018 42.97274,-36.689458 10.01494,-4.514727 20.30576,-4.035662 30.90726,-5.077121 13.89438,-1.364936 27.78466,-5.748559 41.81576,-3.6402 12.11937,1.821092 21.56118,11.417169 33.22124,14.848204 8.91478,2.623238 19.95602,2.564077 28.2628,6.897242 5.45832,2.847278 11.30332,8.981213 14.70986,14.081843 2.97306,4.4516 3.92711,7.43659 8.75988,10.72904 16.17029,11.01638 33.87594,17.70792 44.62551,35.53993 4.08855,6.78232 5.17126,15.56074 8.42922,22.79919 6.90379,15.33868 17.38677,29.18698 23.13917,45.02368 4.77404,13.14319 4.65777,27.37918 5.78477,41.09602 0.42704,5.19753 2.35768,10.21528 3.63617,15.23137 4.35543,17.08834 4.16419,33.97764 5.12373,51.4419 1.02943,18.73656 5.96359,37.21538 6.4459,55.94426 0.21103,8.19477 -2.59173,15.47086 -3.3056,23.4698 -0.31629,3.54405 -0.0378,7.08684 -0.16529,10.63324 -0.17235,4.79469 -1.18489,9.45676 -1.98341,14.17764 -0.79993,4.72918 -0.17609,7.65827 -4.95834,8.81315"
       id="path1029" />
    <path
       style="fill:none;stroke:#000000;stroke-width:16.4223;stroke-linecap:round;stroke-linejoin:miter;stroke-miterlimit:4;stroke-dasharray:none;stroke-opacity:1"
       d="m 459.40719,438.13903 c -1.43244,2.74611 -2.64491,5.6187 -4.2973,8.23836 -0.6443,1.02144 -3.23565,1.00554 -4.29721,1.34114 -6.3091,1.99457 -13.6203,1.59028 -20.16415,2.01169 -5.69105,0.36647 -11.23828,2.37843 -17.02383,1.9159 -6.06534,-0.48489 -10.97747,-5.48859 -16.85855,-6.41827 -3.67947,-0.58165 -7.25149,1.52282 -10.9084,1.34114 -6.63118,-0.32948 -12.96782,-1.53273 -19.66829,-1.53273 -10.61386,0 -19.66791,5.32608 -29.91565,6.51404 -10.93928,1.26812 -16.81336,-1.52083 -27.1059,-4.21496 -7.28732,-1.90748 -15.61026,-1.16146 -22.64332,-3.73599 -3.7543,-1.37431 -7.56277,-1.91504 -11.40425,-2.96964 -2.88323,-0.79154 -5.55228,-2.30269 -8.42924,-2.96964 -6.3053,-1.46172 -13.25842,-2.56776 -18.84196,-6.0351 -2.64983,-1.64552 -9.53378,-14.67842 -10.41255,-14.84823 -0.8962,-0.17319 -1.0157,1.51772 -1.48756,2.29909"
       id="path1031" />
  </g>
</svg>
