<?xml version="1.0" encoding="UTF-8" standalone="no"?>
<!-- Created with Inkscape (http://www.inkscape.org/) -->

<svg
   width="512"
   height="512"
   viewBox="0 0 512 512"
   version="1.1"
   id="svg5"
   inkscape:version="1.1.1 (3bf5ae0d25, 2021-09-20)"
   sodipodi:docname="lightning.svg"
   xmlns:inkscape="http://www.inkscape.org/namespaces/inkscape"
   xmlns:sodipodi="http://sodipodi.sourceforge.net/DTD/sodipodi-0.dtd"
   xmlns="http://www.w3.org/2000/svg"
   xmlns:svg="http://www.w3.org/2000/svg">
  <sodipodi:namedview
     id="namedview7"
     pagecolor="#505050"
     bordercolor="#ffffff"
     borderopacity="1"
     inkscape:pageshadow="0"
     inkscape:pageopacity="0"
     inkscape:pagecheckerboard="1"
     inkscape:document-units="px"
     showgrid="false"
     inkscape:zoom="1.7050781"
     inkscape:cx="256"
     inkscape:cy="255.70676"
     inkscape:current-layer="layer1" />
  <defs
     id="defs2" />
  <g
     inkscape:label="Layer 1"
     inkscape:groupmode="layer"
     id="layer1">
    <path
       style="fill:#f6ff0d;stroke:#000000;stroke-width:19.5129;stroke-linecap:butt;stroke-linejoin:round;stroke-miterlimit:4;stroke-dasharray:none;stroke-opacity:1;fill-opacity:1"
       d="m 177.50776,46.046463 c 2.1751,-4.609298 3.14818,-9.687798 5.10598,-14.227892 0.27308,-0.633291 -0.65002,1.216596 -0.9819,1.821153 -5.42545,9.883 -3.01261,4.627511 -10.212,19.008464 -9.91448,19.804297 -18.52918,40.339593 -27.29746,60.667712 -9.07483,21.03881 -16.83495,42.96233 -26.70831,63.62711 -4.75043,9.94264 -14.11438,17.10118 -17.28184,27.8867 -1.945754,6.62548 -1.371035,13.64656 -3.338517,20.26052 -0.281033,0.94472 -1.37468,3.60355 -1.37468,2.61793 0,-3.02844 8.464297,-4.45575 10.211957,-5.00824 5.42172,-1.71402 11.33537,-1.90896 16.88912,-3.07324 11.54578,-2.42041 22.82913,-5.66785 34.1709,-8.87818 9.35391,-2.64769 19.7487,-5.66883 29.65403,-5.12205 10.25943,0.56632 16.19482,2.32805 26.51196,-2.73172 3.14467,-1.54222 6.46138,-3.72672 9.81917,-4.89438 0.84203,-0.29283 2.55302,0.0947 2.55302,-0.79682 0,-0.20452 0.19639,0.60716 0.19639,0.4553 0,-1.07986 -2.31229,0.50854 -2.55302,0.68295 -0.76432,0.55375 -3.12759,0.3246 -3.73131,1.02438 -0.87613,1.01558 -1.13079,2.7945 -2.55294,3.75622 -3.5439,2.3965 -3.53018,9.04099 -5.10604,12.74816 -2.14405,5.04372 -4.78181,10.02755 -7.26622,14.91084 -4.53019,8.90437 -11.51787,17.28265 -16.88906,25.724 -12.09882,19.01444 -21.97984,37.80149 -29.85047,58.96038 -4.47858,12.03989 -8.6377,24.28494 -14.53245,35.74047 -5.267,10.23561 -11.31541,19.74535 -15.90716,30.39074 -2.40173,5.56813 -3.62534,11.0937 -5.69515,16.73202 -2.07135,5.64255 -5.2965,10.7964 -7.26621,16.50437 -4.83864,14.02177 -7.70353,28.7577 -13.15775,42.45602 -2.558944,6.42678 -3.867574,16.66242 -8.248177,21.74021 -0.522197,0.60532 0.33232,1.60246 0.196397,2.39028 -0.01626,0.0923 -0.457171,1.70732 -0.196397,1.70732 0.723292,0 0.556084,-1.35037 0.981952,-1.93497 0.990489,-1.35967 1.977822,-2.72181 2.945742,-4.0976 8.619733,-12.25198 16.268113,-25.1042 24.940843,-37.33399 17.2219,-24.28537 37.90658,-46.37309 59.8973,-66.3589 13.43481,-12.20998 29.05448,-22.14784 43.00823,-33.80549 12.26654,-10.24807 4.10499,-3.80751 21.20946,-19.00843 9.12366,-8.10828 18.92678,-15.50555 27.69024,-24.01668 7.85185,-7.62576 15.21023,-15.82677 23.17339,-23.33374 10.37957,-9.78493 22.91247,-16.90991 33.38534,-26.5208 13.90458,-12.76015 25.23522,-28.19315 38.0986,-41.88688 7.21618,-7.68203 15.78908,-13.06571 23.76254,-19.80522 3.98777,-3.37065 7.32181,-7.44622 10.99751,-11.15469 4.28051,-4.31867 8.66926,-8.73833 13.35421,-12.63436 1.76848,-1.47069 3.91118,-2.09145 5.69508,-3.64235 2.36104,-2.05265 3.8035,-4.67258 5.89159,-6.48791 1.03001,-0.89544 5.73882,-5.86811 5.69511,-5.91877 -0.77731,-0.90102 -14.01311,-3.5984 -15.1216,-3.75619 -24.36528,-3.46851 -44.57336,-0.18183 -68.73458,3.52854 -18.18742,2.79299 -50.22434,5.15081 -66.96705,-4.55294 -0.84582,-0.4902 -3.82653,-0.21909 -4.71327,-0.34146 -2.40083,-0.33131 -4.65392,-1.33098 -7.06981,-1.59353 -5.28981,-0.57488 -11.81753,0.32544 -16.69273,-1.935 -2.00541,-0.92984 1.59865,-4.25005 6.48071,-9.44733 8.70335,-9.26529 19.04716,-17.24426 28.47574,-25.72401 18.15172,-16.325042 35.83806,-33.137645 53.61297,-49.854519 2.17139,-2.042117 27.88663,-24.424455 27.88663,-25.154912 0,-0.330314 -0.35726,0.56155 -0.58915,0.796766 -0.9462,0.959686 -3.35522,0.918106 -4.51687,1.024414 -9.96234,0.911707 -17.41292,0.619128 -27.49386,-0.227647 -10.23205,-0.859472 -21.42384,0.293297 -31.61794,0.91059 -0.0903,0.0055 -14.04852,1.04614 -17.47816,1.593504 -4.80312,0.766569 -11.60717,2.997146 -16.69272,2.390301 -8.86,-1.057237 -13.37199,-9.465433 -22.19144,-11.382325 -9.25854,-2.012327 -18.77325,0.468554 -28.08296,-0.569119 -11.72386,-1.306756 -23.51096,-3.469532 -35.34924,-2.162624 -4.53938,0.501131 0.62413,12.745536 -3.92769,13.089652"
       id="path857"
       sodipodi:nodetypes="csscsssssssssssssssssssssssssscssssssssssssssssscssssssssssssssssssc" />
  </g>
</svg>
