<?xml version="1.0" encoding="UTF-8" standalone="no"?>
<!-- Created with Inkscape (http://www.inkscape.org/) -->

<svg
   width="512"
   height="512"
   viewBox="0 0 512 512"
   version="1.1"
   id="svg5"
   inkscape:version="1.1.1 (3bf5ae0d25, 2021-09-20)"
   sodipodi:docname="moon.svg"
   xmlns:inkscape="http://www.inkscape.org/namespaces/inkscape"
   xmlns:sodipodi="http://sodipodi.sourceforge.net/DTD/sodipodi-0.dtd"
   xmlns="http://www.w3.org/2000/svg"
   xmlns:svg="http://www.w3.org/2000/svg">
  <sodipodi:namedview
     id="namedview7"
     pagecolor="#505050"
     bordercolor="#ffffff"
     borderopacity="1"
     inkscape:pageshadow="0"
     inkscape:pageopacity="0"
     inkscape:pagecheckerboard="1"
     inkscape:document-units="px"
     showgrid="false"
     inkscape:zoom="1.7050781"
     inkscape:cx="256"
     inkscape:cy="255.70676"
     inkscape:current-layer="layer1" />
  <defs
     id="defs2" />
  <g
     inkscape:label="Layer 1"
     inkscape:groupmode="layer"
     id="layer1">
    <path
       style="fill:#ffcc00;stroke:#000000;stroke-width:12;stroke-linecap:round;stroke-linejoin:miter;stroke-opacity:1;stroke-miterlimit:4;stroke-dasharray:none;fill-opacity:1"
       d="m 304.0431,52.556254 c 5.34976,11.809848 10.78256,23.634599 14.00959,36.259396 2.24075,8.766244 2.59039,18.32559 3.14011,27.29956 0.71425,11.66 1.23673,23.61559 0.24155,35.27941 -2.32494,27.24894 -9.35577,53.83959 -17.75358,79.79868 -3.03984,9.39669 -7.87371,23.90542 -12.56028,33.80946 -10.81088,22.84641 -23.3955,43.14278 -37.07718,64.53894 -17.28473,27.03083 -40.33949,52.35762 -69.32334,66.98887 -2.25574,1.13871 -16.15617,7.92939 -21.37672,9.51987 -24.97921,7.61011 -36.52967,2.70142 -59.78233,-4.82994 -4.598246,-1.48933 -8.94571,-3.59428 -13.52652,-5.17991 -4.079697,-1.41217 -8.016276,-2.29648 -11.835696,-4.33992 -1.873657,-1.00243 -3.707963,-1.91813 -5.434744,-3.14995 -1.175449,-0.83852 -2.173897,-1.34347 -2.173897,-1.32997 0,3.63019 4.711428,9.71234 6.884021,12.45977 2.553005,3.2285 5.092928,6.8491 8.454073,9.30985 8.418941,6.16366 17.602933,11.46179 26.207613,17.35972 20.37128,13.96312 36.60252,21.04346 60.26543,28.27953 11.59614,3.54607 23.23088,7.07606 35.26554,8.81987 16.94609,2.45547 35.80727,5.38916 52.77756,1.32993 39.07522,-9.34662 76.70829,-34.16373 98.67104,-68.10885 6.85357,-10.59273 12.05954,-22.05072 16.54581,-33.80942 13.94052,-36.53864 16.42862,-76.36586 15.45884,-115.14813 -0.32832,-13.12986 -2.54461,-26.15777 -3.86469,-39.19935 -1.04277,-10.3019 -1.41183,-20.63504 -2.41545,-30.93946 -1.59966,-16.42404 -4.73619,-32.63508 -9.42025,-48.43922 -0.99758,-3.36586 -2.16562,-7.41741 -3.50243,-10.49982 -5.37365,-12.39051 -15.2028,-21.693886 -25.36219,-30.169516 -4.193,-3.498082 -8.25298,-7.266798 -12.92268,-10.149825 -1.67491,-1.034078 -3.65614,-1.466533 -5.43471,-2.309958 -2.66551,-1.264031 -4.7781,-3.40932 -7.24634,-4.969932 -2.50509,-1.583902 -5.61533,-2.554586 -8.21256,-4.059922 -3.14422,-1.822363 -6.85757,-4.990862 -10.26561,-6.159902 -4.22126,-1.447996 -3.54108,-1.139037 -7.24635,-0.279997"
       id="path904" />
  </g>
</svg>
