<?xml version="1.0" encoding="UTF-8" standalone="no"?>
<!-- Created with Inkscape (http://www.inkscape.org/) -->

<svg
   width="512"
   height="512"
   viewBox="0 0 512 512"
   version="1.1"
   id="svg5"
   inkscape:version="1.1.1 (3bf5ae0d25, 2021-09-20)"
   sodipodi:docname="pencil.svg"
   xmlns:inkscape="http://www.inkscape.org/namespaces/inkscape"
   xmlns:sodipodi="http://sodipodi.sourceforge.net/DTD/sodipodi-0.dtd"
   xmlns="http://www.w3.org/2000/svg"
   xmlns:svg="http://www.w3.org/2000/svg">
  <sodipodi:namedview
     id="namedview7"
     pagecolor="#505050"
     bordercolor="#ffffff"
     borderopacity="1"
     inkscape:pageshadow="0"
     inkscape:pageopacity="0"
     inkscape:pagecheckerboard="1"
     inkscape:document-units="px"
     showgrid="false"
     inkscape:zoom="1.7050781"
     inkscape:cx="256"
     inkscape:cy="255.70676"
     inkscape:current-layer="layer1" />
  <defs
     id="defs2" />
  <g
     inkscape:label="Layer 1"
     inkscape:groupmode="layer"
     id="layer1">
    <path
       style="fill:none;stroke:#000000;stroke-width:12;stroke-linecap:butt;stroke-linejoin:miter;stroke-opacity:1;stroke-miterlimit:4;stroke-dasharray:none"
       d="m 198.27932,85.848958 c 0.20128,2.333298 0.52505,4.659256 0.60384,6.999893 0.2588,7.687589 -1.12224,15.197749 -1.81157,22.819619 -0.87387,9.66247 -1.34,19.29123 -1.8116,28.97951 -1.06302,21.83797 0.55359,43.41968 0.84543,65.23894 0.23403,17.49734 -0.99067,34.9401 -1.20773,52.42912 -0.17027,13.7199 0.29809,27.44013 0.12078,41.15933 -0.14755,11.41616 -0.73461,22.80383 -1.93238,34.15944 -0.84235,7.98598 -2.12814,15.90889 -2.657,23.93961 -0.0629,0.95458 -0.0783,1.91651 0,2.86995 0.0138,0.16766 0.15244,0.65523 0.12077,0.49002 -0.39554,-2.06356 -0.39888,-4.13178 -0.48306,-6.22992"
       id="path857" />
    <path
       style="fill:none;stroke:#000000;stroke-width:12;stroke-linecap:butt;stroke-linejoin:miter;stroke-opacity:1;stroke-miterlimit:4;stroke-dasharray:none"
       d="m 286.44316,87.66894 c -0.12078,1.44664 -0.33419,2.888519 -0.36233,4.33992 -0.055,2.836783 0.65836,5.638717 0.84543,8.46986 0.86613,13.10792 1.28277,26.35414 1.69079,39.47936 0.66823,21.49567 -4.31555,42.52945 -5.19319,63.97895 -0.29057,7.10152 -0.47077,14.59529 0.60385,21.62962 1.14938,7.52377 3.41688,14.83413 4.71012,22.32965 1.1674,6.76614 0.79557,14.24715 1.08695,21.06966 0.37798,8.85042 1.40068,17.57591 2.1739,26.38957 1.46971,16.75284 -0.0813,33.12749 -2.05313,49.69917 -0.6353,5.3392 -1.0766,11.48078 -0.4831,16.86973 0.0772,0.70118 0.79334,0.8057 1.20772,1.18997 0.4391,0.40719 -0.98619,-0.77361 -1.20772,-1.32996"
       id="path861" />
    <path
       style="fill:none;stroke:#000000;stroke-width:12;stroke-linecap:butt;stroke-linejoin:miter;stroke-opacity:1;stroke-miterlimit:4;stroke-dasharray:none"
       d="m 286.44316,87.66894 c -1.93236,-0.769986 -4.04429,-1.18986 -5.79708,-2.309959 -0.36313,-0.232056 0.78125,-0.396245 1.08695,-0.699993 0.005,-0.005 -1.34924,-0.78697 -1.69083,-0.489995 -0.97885,0.851015 -1.59643,2.365384 -2.41541,3.359948 -2.94299,3.573967 -7.69971,6.681103 -12.19802,7.839866 -2.24106,0.577295 -4.97535,0.280589 -7.24635,0.489995 -5.09393,0.469705 -9.94945,1.68876 -15.09655,1.959962 -8.27816,0.436181 -17.22042,2.06397 -25.36222,-0.839973 -2.43736,-0.869337 -2.35319,-1.301435 -4.46857,-2.799954 -1.33588,-0.946329 -2.96548,-1.290437 -4.34779,-2.029979 -3.73691,-1.999255 -6.07783,-5.750106 -10.62797,-6.2999 1.2637,-10.664466 3.3641,-29.674728 10.86952,-37.449366 8.38404,-8.684777 20.80129,-10.511135 32.12543,-12.179804 5.30642,-0.781928 12.43765,-3.19237 17.75354,-1.959962 7.59974,1.761884 11.56102,11.445377 15.09655,17.499696 1.07923,1.848107 3.39919,4.092815 3.62317,6.2999 0.45632,4.496487 -0.12074,9.348261 -0.12074,13.859768 0,4.942645 2.74309,7.687555 3.01929,12.249803 0.12262,2.025408 0.30419,4.482459 0,6.509898 -0.11808,0.787054 -1.31021,2.676698 -0.60388,2.309959 2.46225,-1.278445 4.26731,-3.546607 6.40096,-5.31991"
       id="path863" />
    <path
       style="fill:none;stroke:#000000;stroke-width:12;stroke-linecap:butt;stroke-linejoin:miter;stroke-opacity:1;stroke-miterlimit:4;stroke-dasharray:none"
       d="m 191.51607,371.02427 c 8.50665,0.0292 14.4725,6.93327 22.22212,9.23983 2.61023,0.7769 5.30667,0.81076 7.97097,1.25999 4.91663,0.829 9.54123,2.61254 14.61347,2.65997 6.91954,0.0647 13.71606,-4.94445 20.16896,-6.92991 6.58662,-2.0266 12.01991,-0.41532 17.39125,-5.52989 4.89951,-4.66529 6.55328,-10.69316 14.13037,-9.65983 2.0619,0.2812 -0.21472,-2.20888 1.44924,-0.27999"
       id="path865" />
    <path
       style="fill:none;stroke:#000000;stroke-width:12;stroke-linecap:butt;stroke-linejoin:miter;stroke-opacity:1;stroke-miterlimit:4;stroke-dasharray:none"
       d="m 191.51607,371.02427 c 0.20324,3.89583 4.14006,5.88828 5.55552,9.16985 3.3077,7.6685 5.29695,15.94958 8.09175,23.79962 1.45951,4.09947 3.46611,8.05988 4.8309,12.1798 2.8218,8.51829 5.35691,17.15847 8.33329,25.61956 2.50391,7.11797 6.16308,13.5782 7.0048,21.13967 0.075,0.67349 1.1078,7.33451 0.36233,5.3899"
       id="path867" />
    <path
       style="fill:none;stroke:#000000;stroke-width:12;stroke-linecap:butt;stroke-linejoin:miter;stroke-opacity:1;stroke-miterlimit:4;stroke-dasharray:none"
       d="m 289.46245,361.78444 c -1.04669,2.98661 -2.05331,5.98757 -3.14007,8.95983 -0.98633,2.69758 -2.64664,5.11366 -3.74395,7.76987 -4.99459,12.09022 -9.23104,24.46421 -15.09654,36.1894 -1.74566,3.48957 -3.39941,7.03 -5.31397,10.42984 -0.1869,0.33189 -4.13452,6.58356 -5.07245,9.02985 -3.52266,9.18768 -6.15642,19.13908 -10.86952,27.78952 -3.38867,6.21955 -12.07725,10.64927 -12.07725,18.12972 0,0.83464 -0.56028,-1.5807 -0.96618,-2.30999 -0.95071,-1.70817 -1.68877,-3.30701 -2.29467,-5.17991 -0.80654,-2.4931 -1.7859,-4.54317 -3.01929,-6.78988 -0.19545,-0.35602 -1.31792,-2.49229 -1.3285,-2.44996 -0.40765,1.63025 -0.5636,3.31329 -0.8454,4.96994"
       id="path869" />
    <path
       style="fill:none;stroke:#000000;stroke-width:12;stroke-linecap:butt;stroke-linejoin:miter;stroke-opacity:1;stroke-miterlimit:4;stroke-dasharray:none"
       d="m 220.1391,437.17318 c 0.45694,-3.62056 2.67392,-5.88005 5.79708,-7.62987 3.54566,-1.98653 15.0369,0.42 19.56514,0.42 0.42017,0 14.90094,-0.45359 10.5072,2.72995"
       id="path871" />
    <path
       style="fill:#4d4d4d;stroke:#45b5e7;stroke-width:0;stroke-linecap:round;stroke-linejoin:round;stroke-miterlimit:4;stroke-dasharray:none"
       d="m 234.34035,464.62162 c -0.22799,-0.71834 -1.01799,-2.03042 -1.75556,-2.91574 -0.73757,-0.88531 -1.53112,-2.66533 -1.76345,-3.95559 -0.23233,-1.29027 -1.85393,-5.99425 -3.60355,-10.45329 -1.74962,-4.45904 -3.18113,-8.35182 -3.18113,-8.65063 0,-0.2988 0.42387,-0.54328 0.94193,-0.54328 0.51807,0 1.46094,-0.65979 2.09526,-1.46621 0.85438,-1.08616 1.71236,-1.46772 3.31007,-1.47205 4.24856,-0.0115 18.87152,1.43547 18.87152,1.86739 0,1.09242 -5.62047,15.82934 -7.35657,19.28897 -1.06239,2.11709 -3.1044,5.14463 -4.5378,6.72788 -2.45678,2.7136 -2.62995,2.80375 -3.02072,1.57255 z"
       id="path984" />
    <path
       style="fill:#ffb380;stroke:#45b5e7;stroke-width:0;stroke-linecap:round;stroke-linejoin:round;stroke-miterlimit:4;stroke-dasharray:none"
       d="m 217.96973,420.36197 c -0.90377,-2.98373 -3.04986,-8.98786 -4.76909,-13.3425 -1.71923,-4.35464 -4.08773,-11.0297 -5.26333,-14.83346 -1.1756,-3.80377 -2.27634,-7.27787 -2.44609,-7.72022 -0.22036,-0.57426 0.66821,-0.41075 3.10695,0.57173 1.87857,0.75681 5.263,1.67766 7.52096,2.04635 2.25796,0.36868 7.40435,1.334 11.43643,2.14515 10.45021,2.10231 12.65972,1.7313 27.85796,-4.67777 1.93539,-0.81615 6.00584,-1.90874 9.04543,-2.42796 3.0396,-0.51923 6.70925,-1.46722 8.15478,-2.10665 1.44554,-0.63943 2.69768,-1.09316 2.78254,-1.0083 0.45301,0.45301 -11.37561,28.45421 -15.25718,36.11744 l -4.5326,8.94851 -5.96132,-0.34181 c -3.27873,-0.18799 -8.99637,-0.60179 -12.70588,-0.91953 -7.50387,-0.64277 -11.82043,-0.12632 -15.09563,1.80609 -1.08869,0.64235 -2.03597,1.1679 -2.10507,1.1679 -0.0691,0 -0.86509,-2.44124 -1.76886,-5.42497 z"
       id="path1097" />
    <path
       style="fill:#00aad4;stroke:#45b5e7;stroke-width:0;stroke-linecap:round;stroke-linejoin:round;stroke-miterlimit:4;stroke-dasharray:none"
       d="m 229.31501,376.77999 c -1.77412,-0.44855 -5.63305,-1.19326 -8.57541,-1.65491 -4.68993,-0.73582 -6.42598,-1.39087 -14.0756,-5.31102 -4.79922,-2.45942 -9.06654,-4.7478 -9.48293,-5.08529 -0.81385,-0.65963 -0.73492,-2.10628 0.79649,-14.59819 2.4715,-20.16026 2.69173,-24.83707 3.34166,-70.96449 0.70368,-49.94207 0.77205,-69.57514 0.38803,-111.43184 -0.25951,-28.28574 0.0656,-36.18659 2.41301,-58.64834 0.62366,-5.96747 1.13729,-11.034977 1.14142,-11.26113 0.0102,-0.55808 3.87542,1.254775 6.75207,3.16682 4.46485,2.9677 8.36004,3.70498 19.06071,3.6078 5.32233,-0.0483 11.78831,-0.35603 14.36884,-0.68376 2.58053,-0.32773 7.33104,-0.89205 10.5567,-1.25404 10.82068,-1.21434 12.94508,-1.63345 16.28235,-3.212229 2.60718,-1.233397 3.56988,-1.438182 4.47748,-0.952451 0.6359,0.340325 1.6804,0.618773 2.32111,0.618773 1.60374,0 1.69862,0.730534 2.48645,19.144337 0.98528,23.02847 0.46842,39.9686 -1.76896,57.97823 -3.88697,31.288 -3.77583,43.71228 0.55875,62.46048 2.20306,9.52885 2.41087,11.18697 2.90329,23.16609 0.29171,7.09645 1.102,19.1047 1.80065,26.685 1.51768,16.46673 1.34133,31.14492 -0.59537,49.55784 -0.67856,6.45132 -1.3753,13.11106 -1.54829,14.79942 -0.29953,2.9232 -0.43158,3.12451 -2.76606,4.21692 -2.93225,1.37214 -3.77727,2.11552 -8.18333,7.19907 -3.67334,4.23815 -4.61597,4.7105 -11.40182,5.7133 -4.31536,0.63771 -7.74613,1.78053 -16.58916,5.52601 -5.56923,2.35886 -9.01611,2.6451 -14.66208,1.2176 z"
       id="path1173" />
    <path
       style="fill:#ff5555;stroke:#45b5e7;stroke-width:0;stroke-linecap:round;stroke-linejoin:round;stroke-miterlimit:4;stroke-dasharray:none"
       d="m 225.20962,92.069822 c -4.45733,-0.496013 -5.37833,-0.827129 -8.44538,-3.036282 -1.25802,-0.906134 -2.61744,-1.647515 -3.02093,-1.647515 -0.60001,0 -2.55698,-1.319838 -8.42369,-5.681208 -0.38686,-0.287598 1.64709,-12.04244 2.93362,-16.95425 3.40801,-13.011435 9.66586,-18.004425 26.34012,-21.016184 2.74181,-0.495235 7.91252,-1.432912 11.49047,-2.083728 3.57794,-0.650816 7.84781,-1.183301 9.48859,-1.183301 2.56514,0 3.26307,0.267133 4.9799,1.906071 1.09817,1.048339 3.13519,3.885452 4.52672,6.304696 1.39152,2.419244 3.4149,5.780133 4.4964,7.468641 l 1.96637,3.070016 0.0192,8.36641 c 0.0151,6.576497 0.25101,9.03784 1.10293,11.504801 l 1.08379,3.138391 -1.64904,1.878152 c -3.08324,3.511621 -6.8455,5.039356 -13.88737,5.639229 -3.47419,0.295951 -7.76823,0.78298 -9.54234,1.082286 -1.77411,0.299307 -6.12875,0.713326 -9.67698,0.920045 -3.54822,0.206717 -7.24307,0.459572 -8.21077,0.561898 -0.96769,0.102326 -3.47491,-0.0049 -5.57159,-0.238168 z"
       id="path1249" />
  </g>
</svg>
